<svg xmlns="http://www.w3.org/2000/svg" xmlns:xlink="http://www.w3.org/1999/xlink" width="304" height="304" viewBox="0 0 304 304">
  <defs>
    <clipPath id="clip-path">
      <circle id="Ellipse_2093" data-name="Ellipse 2093" cx="152" cy="152" r="152" transform="translate(36 94)" fill="#fff"/>
    </clipPath>
    <linearGradient id="linear-gradient" x1="0.5" y1="1" x2="0.5" gradientUnits="objectBoundingBox">
      <stop offset="0" stop-color="gray" stop-opacity="0.251"/>
      <stop offset="0.54" stop-color="gray" stop-opacity="0.122"/>
      <stop offset="1" stop-color="gray" stop-opacity="0.102"/>
    </linearGradient>
  </defs>
  <g id="Mask_Group_77" data-name="Mask Group 77" transform="translate(-36 -94)" clip-path="url(#clip-path)">
    <g id="undraw_back_to_school_inwc" transform="translate(34.807 132.533)">
      <ellipse id="Ellipse_2061" data-name="Ellipse 2061" cx="97.315" cy="5.267" rx="97.315" ry="5.267" transform="translate(61.901 218.461)" fill="#3e4f87" opacity="0.1"/>
      <path id="Path_5318" data-name="Path 5318" d="M666.93,643.309l-.837,1.228-5.175,7.7-4.394,1.325-3.278-3.208.159-2.117.817-10.994s-20.281-11.932-22.095-14.164-8.788-4.254-8.788-4.254-10.671-4.952-14.646-13.6,6.626-9.973,6.626-9.973l39.824,38.086Z" transform="translate(-452.592 -440.231)" fill="#ffc1c7"/>
      <path id="Path_5319" data-name="Path 5319" d="M761.018,773.772l-12.624,11.787a47.3,47.3,0,0,1-13.739.418c-4.146-.625-3.348-2.9-2.257-4.464l.02-.028a4.586,4.586,0,0,1,2.689-1.769,10.868,10.868,0,0,0,7.22-5.18l3.906,3.348L753,770l5,2.349Z" transform="translate(-541.798 -566.23)" fill="#575988"/>
      <line id="Line_35" data-name="Line 35" y1="10.972" x2="12.604" transform="translate(203.598 206.261)" fill="#fff"/>
      <path id="Path_5320" data-name="Path 5320" d="M668.794,646.37l-2.971-1.395.279-.424.837-1.227-11.8-9.973L615.32,595.27s-10.6,1.32-6.626,9.968,14.646,13.6,14.646,13.6,6.974,2.023,8.788,4.254,22.109,14.158,22.109,14.158l-.817,10.994-.039.525-.26-.22a10.869,10.869,0,0,1-7.22,5.181,4.586,4.586,0,0,0-2.689,1.769l-.02.028c-1.116,1.562-1.889,3.836,2.257,4.464a47.3,47.3,0,0,0,13.74-.419l12.624-11.787Z" transform="translate(-452.592 -440.245)" opacity="0.1"/>
      <path id="Path_5321" data-name="Path 5321" d="M63.3,469.55c4.843,20.7,15.1,38.593,31.3,47.272,33.675,18.027,109.615,8.729,166.288-1.953a129.768,129.768,0,0,0,73.8-42.189Z" transform="translate(-59.991 -349.598)" fill="#3e4f87" opacity="0.1"/>
      <path id="Path_5322" data-name="Path 5322" d="M380.737,62.092h-31.1a2.689,2.689,0,0,1,0-5.376h5.376a2.687,2.687,0,0,1,0-5.373h-3.839a2.689,2.689,0,0,1,0-5.376h16.231a42.943,42.943,0,0,0-12.663-3.49c-44.256-5.683-60.058-1.925-65.631,1.953A61.978,61.978,0,0,1,266.366,54.4c-27.306,5.632-78.372,12.409-124.657-2.17-23-7.253-40.1,5-50.349,25.465H386.135a48.031,48.031,0,0,0-3.652-16.247,2.681,2.681,0,0,1-1.746.644Z" transform="translate(-80.223 -39.575)" fill="#3e4f87" opacity="0.1"/>
      <path id="Path_5323" data-name="Path 5323" d="M52.11,314.67a137.023,137.023,0,0,0,1.205,36.116l273.026,9.984a128.2,128.2,0,0,0,18.97-28.93ZM160.1,340.428h-5.376a2.689,2.689,0,1,1,0,5.376h-31.1a2.689,2.689,0,0,1,0-5.376H129a2.687,2.687,0,1,1,0-5.373h-3.839a2.689,2.689,0,0,1,0-5.376h31.1a2.689,2.689,0,0,1,0,5.376H160.1a2.687,2.687,0,0,1,0,5.373Z" transform="translate(-51.44 -237.925)" fill="#3e4f87" opacity="0.1"/>
      <path id="Path_5324" data-name="Path 5324" d="M359.212,176.86,61.133,184.113A118.876,118.876,0,0,0,54,214.893H353.989a127.512,127.512,0,0,0,4.332-19.62A92.963,92.963,0,0,0,359.212,176.86Zm-244.7,23.752h-5.376a2.689,2.689,0,1,1,0,5.376h-31.1a2.689,2.689,0,0,1,0-5.376h5.376a2.687,2.687,0,1,1,0-5.373H79.579a2.689,2.689,0,0,1,0-5.376h31.1a2.689,2.689,0,0,1,0,5.376h3.839a2.687,2.687,0,1,1,0,5.373Z" transform="translate(-53.286 -138.561)" fill="#3e4f87" opacity="0.1"/>
      <g id="Group_4775" data-name="Group 4775" transform="translate(220.551 76.069)" opacity="0.1">
        <path id="Path_5325" data-name="Path 5325" d="M848.76,404.97s7.867-19.389,22.558-26.581A31.689,31.689,0,0,0,885.7,364.418a53.332,53.332,0,0,0,3.607-9.058" transform="translate(-846.879 -343.333)" fill="none" stroke="#535461" stroke-miterlimit="10" stroke-width="2"/>
        <path id="Path_5326" data-name="Path 5326" d="M1002.767,319.689c-1.532,1.925-9.457,4.743-9.457,4.743s.954-8.355,2.486-10.28a4.464,4.464,0,1,1,6.974,5.546Z" transform="translate(-951.103 -312.249)" fill="#3e4f87"/>
        <path id="Path_5327" data-name="Path 5327" d="M990.292,370.883c-2.332.784-10.512-1.166-10.512-1.166s5.342-6.495,7.675-7.278a4.464,4.464,0,1,1,2.837,8.445Z" transform="translate(-941.348 -348.196)" fill="#3e4f87"/>
        <path id="Path_5328" data-name="Path 5328" d="M942.666,435.485c-2.408-.5-8.486-6.313-8.486-6.313s7.892-2.91,10.3-2.41a4.464,4.464,0,0,1-1.813,8.724Z" transform="translate(-908.469 -394.773)" fill="#3e4f87"/>
        <path id="Path_5329" data-name="Path 5329" d="M889.222,475.036c-2.458-.084-9.432-4.787-9.432-4.787s7.287-4.2,9.745-4.115a4.464,4.464,0,1,1-.312,8.9Z" transform="translate(-869.253 -423.203)" fill="#3e4f87"/>
        <path id="Path_5330" data-name="Path 5330" d="M952.458,357.609c.312,2.441,5.641,8.947,5.641,8.947s3.509-7.644,3.194-10.082a4.464,4.464,0,0,0-8.835,1.135Z" transform="translate(-921.641 -341.537)" fill="#3e4f87"/>
        <path id="Path_5331" data-name="Path 5331" d="M892.656,401.591c1.029,2.232,8.062,6.849,8.062,6.849s1.057-8.341.028-10.576a4.464,4.464,0,0,0-8.09,3.727Z" transform="translate(-878.317 -372.298)" fill="#3e4f87"/>
        <path id="Path_5332" data-name="Path 5332" d="M842.108,457.356c.639,2.377,6.787,8.113,6.787,8.113s2.455-8.043,1.819-10.42a4.464,4.464,0,0,0-8.606,2.307Z" transform="translate(-842.018 -413.016)" fill="#3e4f87"/>
        <path id="Path_5333" data-name="Path 5333" d="M1002.767,319.689c-1.532,1.925-9.457,4.743-9.457,4.743s.954-8.355,2.486-10.28a4.464,4.464,0,1,1,6.974,5.546Z" transform="translate(-951.103 -312.249)" opacity="0.25"/>
        <path id="Path_5334" data-name="Path 5334" d="M990.292,370.883c-2.332.784-10.512-1.166-10.512-1.166s5.342-6.495,7.675-7.278a4.464,4.464,0,1,1,2.837,8.445Z" transform="translate(-941.348 -348.196)" opacity="0.25"/>
        <path id="Path_5335" data-name="Path 5335" d="M942.666,435.485c-2.408-.5-8.486-6.313-8.486-6.313s7.892-2.91,10.3-2.41a4.464,4.464,0,0,1-1.813,8.724Z" transform="translate(-908.469 -394.773)" opacity="0.25"/>
        <path id="Path_5336" data-name="Path 5336" d="M889.222,475.036c-2.458-.084-9.432-4.787-9.432-4.787s7.287-4.2,9.745-4.115a4.464,4.464,0,1,1-.312,8.9Z" transform="translate(-869.253 -423.203)" opacity="0.25"/>
        <path id="Path_5337" data-name="Path 5337" d="M952.458,357.609c.312,2.441,5.641,8.947,5.641,8.947s3.509-7.644,3.194-10.082a4.464,4.464,0,0,0-8.835,1.135Z" transform="translate(-921.641 -341.537)" opacity="0.25"/>
        <path id="Path_5338" data-name="Path 5338" d="M892.656,401.591c1.029,2.232,8.062,6.849,8.062,6.849s1.057-8.341.028-10.576a4.464,4.464,0,0,0-8.09,3.727Z" transform="translate(-878.317 -372.298)" opacity="0.25"/>
        <path id="Path_5339" data-name="Path 5339" d="M842.108,457.356c.639,2.377,6.787,8.113,6.787,8.113s2.455-8.043,1.819-10.42a4.464,4.464,0,0,0-8.606,2.307Z" transform="translate(-842.018 -413.016)" opacity="0.25"/>
      </g>
      <g id="Group_4776" data-name="Group 4776" transform="translate(201.873 33.387)" opacity="0.1">
        <path id="Path_5340" data-name="Path 5340" d="M803.86,266.258s.993-20.9,12.467-32.559a31.7,31.7,0,0,0,8.941-17.949,53.361,53.361,0,0,0,.391-9.75" transform="translate(-795.828 -192.959)" fill="none" stroke="#535461" stroke-miterlimit="10" stroke-width="2"/>
        <path id="Path_5341" data-name="Path 5341" d="M885.518,164.9c-.806,2.327-7.351,7.6-7.351,7.6s-1.869-8.2-1.066-10.523a4.464,4.464,0,0,1,8.417,2.918Z" transform="translate(-848.492 -159.253)" fill="#3e4f87"/>
        <path id="Path_5342" data-name="Path 5342" d="M890.085,214.142c-1.953,1.512-10.305,2.388-10.305,2.388s2.887-7.9,4.826-9.413a4.464,4.464,0,0,1,5.479,7.025Z" transform="translate(-850.568 -193.205)" fill="#3e4f87"/>
        <path id="Path_5343" data-name="Path 5343" d="M862.172,289.932c-2.438.326-10.1-3.141-10.1-3.141s6.481-5.362,8.927-5.688a4.464,4.464,0,0,1,1.183,8.83Z" transform="translate(-830.589 -247.102)" fill="#3e4f87"/>
        <path id="Path_5344" data-name="Path 5344" d="M826.284,344.535c-2.346.736-10.484-1.395-10.484-1.395s5.479-6.377,7.828-7.111a4.464,4.464,0,1,1,2.656,8.5Z" transform="translate(-804.437 -286.492)" fill="#3e4f87"/>
        <path id="Path_5345" data-name="Path 5345" d="M846.636,217.448c1.116,2.2,8.291,6.57,8.291,6.57s.773-8.369-.332-10.57a4.464,4.464,0,0,0-7.959,4Z" transform="translate(-826.416 -196.74)" fill="#3e4f87"/>
        <path id="Path_5346" data-name="Path 5346" d="M804.785,278.75c1.713,1.766,9.876,3.788,9.876,3.788s-1.766-8.224-3.479-9.99a4.464,4.464,0,0,0-6.4,6.2Z" transform="translate(-795.723 -240.104)" fill="#3e4f87"/>
        <path id="Path_5347" data-name="Path 5347" d="M775.677,348.228c1.395,2.031,9.095,5.4,9.095,5.4s-.354-8.4-1.741-10.434a4.464,4.464,0,0,0-7.354,5.022Z" transform="translate(-775.068 -290.662)" fill="#3e4f87"/>
      </g>
      <path id="Path_5348" data-name="Path 5348" d="M467.15,125.048s-6.648-.4-5.858,4.26a1.135,1.135,0,0,0,.591,1.2s0-.346.681-.229a2.972,2.972,0,0,0,.723.036,1.509,1.509,0,0,0,.884-.365h0s1.869-.773,2.594-3.828c0,0,.538-.667.516-.837l-1.116.48a2.014,2.014,0,0,1,.081,1.481s-.036-1.453-.251-1.42c-.045,0-.583.279-.583.279a3.311,3.311,0,0,1,.162,2.435s.19-1.738-.368-2.332l-.789.46a3.492,3.492,0,0,1,.248,2.645,4.977,4.977,0,0,0-.413-2.533l-.717.558a3.393,3.393,0,0,1,.279,2.421s-.056-2.123-.438-2.282a4.37,4.37,0,0,0-.72.778s.494,1.043.187,1.593c0,0-.187-1.414-.343-1.42a4.686,4.686,0,0,0-.689,1.579,3.409,3.409,0,0,1,.538-1.674,1.889,1.889,0,0,0-.957.494s.1-.661,1.116-.72a4.344,4.344,0,0,1,.653-.753,4.039,4.039,0,0,0-1.615.187,1.814,1.814,0,0,1,1.8-.343l.709-.575a5.888,5.888,0,0,0-1.889.017,2.273,2.273,0,0,1,2.078-.148l.77-.46a6.9,6.9,0,0,0-1.8-.156,2.78,2.78,0,0,1,2.031.031l.558-.245s-.837-.162-1.071-.19-.254-.092-.254-.092a2.868,2.868,0,0,1,1.554.173A6.5,6.5,0,0,0,467.15,125.048Z" transform="translate(-346.907 -101.197)" fill="#3e4f87" opacity="0.1"/>
      <path id="Path_5349" data-name="Path 5349" d="M418.459,206.2s-2.271,6.263,2.419,6.835a1.138,1.138,0,0,0,1.317-.229s-.329-.109-.025-.717a2.984,2.984,0,0,0,.229-.683,1.509,1.509,0,0,0-.1-.951h0s-.209-2.011-2.932-3.574c0,0-.488-.706-.658-.734l.142,1.211a2.019,2.019,0,0,1,1.445.343s-1.395-.377-1.434-.162c0,.045.1.639.1.639a3.326,3.326,0,0,1,2.382.536s-1.612-.672-2.341-.31l.218.89a3.481,3.481,0,0,1,2.606.513,4.967,4.967,0,0,0-2.547-.324l.332.837a3.461,3.461,0,0,1,2.4.416s-2.05-.558-2.313-.226a4.3,4.3,0,0,0,.544.912s1.138-.179,1.579.279c0,0-1.409-.22-1.459-.073a4.781,4.781,0,0,0,1.317,1.116,3.4,3.4,0,0,1-1.445-.988,1.88,1.88,0,0,0,.2,1.043s-.605-.279-.374-1.267a4.493,4.493,0,0,1-.538-.837,4.112,4.112,0,0,0-.279,1.6,1.817,1.817,0,0,1,.184-1.824l-.352-.837a5.649,5.649,0,0,0-.519,1.813,2.294,2.294,0,0,1,.446-2.034l-.223-.868a7.026,7.026,0,0,0-.661,1.674,2.768,2.768,0,0,1,.608-1.936l-.081-.6s-.391.748-.485.974-.162.218-.162.218a2.887,2.887,0,0,1,.608-1.442A6.759,6.759,0,0,0,418.459,206.2Z" transform="translate(-315.674 -159.68)" fill="#3e4f87" opacity="0.1"/>
      <path id="Path_5350" data-name="Path 5350" d="M576.5,187.286s-2.274,6.26,2.419,6.832a1.135,1.135,0,0,0,1.314-.226s-.326-.109-.025-.72a3.005,3.005,0,0,0,.24-.683,1.481,1.481,0,0,0-.1-.949h0s-.209-2.011-2.932-3.576c0,0-.485-.706-.656-.734l.139,1.214a2.009,2.009,0,0,1,1.445.34s-1.395-.377-1.431-.159c0,.042.1.639.1.639a3.3,3.3,0,0,1,2.38.536s-1.61-.675-2.341-.31l.218.887a3.488,3.488,0,0,1,2.608.513,4.944,4.944,0,0,0-2.547-.321l.332.837a3.461,3.461,0,0,1,2.4.416s-2.05-.558-2.313-.229a4.391,4.391,0,0,0,.541.912s1.141-.179,1.582.279c0,0-1.412-.22-1.459-.075a4.781,4.781,0,0,0,1.317,1.116,3.415,3.415,0,0,1-1.448-.99,1.875,1.875,0,0,0,.2,1.057s-.608-.279-.377-1.269a4.4,4.4,0,0,1-.536-.837,4.046,4.046,0,0,0-.279,1.6,1.816,1.816,0,0,1,.187-1.825l-.354-.837a5.59,5.59,0,0,0-.516,1.816,2.3,2.3,0,0,1,.446-2.037l-.223-.868a6.956,6.956,0,0,0-.661,1.674,2.756,2.756,0,0,1,.605-1.936l-.081-.6s-.391.748-.483.971-.162.22-.162.22a2.857,2.857,0,0,1,.608-1.442A7.052,7.052,0,0,0,576.5,187.286Z" transform="translate(-429.622 -146.038)" fill="#3e4f87" opacity="0.1"/>
      <path id="Path_5351" data-name="Path 5351" d="M318.267,159.173s-2.274,6.263,2.419,6.832a1.13,1.13,0,0,0,1.314-.226s-.326-.109-.025-.717a3.142,3.142,0,0,0,.24-.683,1.509,1.509,0,0,0-.1-.951h0s-.209-2.011-2.932-3.576c0,0-.485-.7-.656-.731l.14,1.211a2.019,2.019,0,0,1,1.445.343s-1.395-.379-1.431-.162c0,.045.1.639.1.639a3.318,3.318,0,0,1,2.38.536s-1.612-.675-2.341-.31l.218.89a3.481,3.481,0,0,1,2.606.513,4.955,4.955,0,0,0-2.544-.324l.332.837a3.461,3.461,0,0,1,2.4.416s-2.053-.558-2.313-.229a4.4,4.4,0,0,0,.541.915s1.141-.181,1.579.279c0,0-1.409-.22-1.459-.073a4.859,4.859,0,0,0,1.32,1.116,3.387,3.387,0,0,1-1.448-.99,1.875,1.875,0,0,0,.2,1.057s-.608-.279-.377-1.267a4.357,4.357,0,0,1-.536-.837,4.059,4.059,0,0,0-.279,1.6,1.817,1.817,0,0,1,.184-1.824l-.352-.837a5.671,5.671,0,0,0-.519,1.816,2.294,2.294,0,0,1,.446-2.034l-.22-.87a6.954,6.954,0,0,0-.661,1.674,2.756,2.756,0,0,1,.605-1.936l-.081-.6s-.391.748-.483.974-.162.218-.162.218a2.868,2.868,0,0,1,.605-1.442A6.248,6.248,0,0,0,318.267,159.173Z" transform="translate(-243.432 -125.77)" fill="#3e4f87" opacity="0.1"/>
      <path id="Path_5352" data-name="Path 5352" d="M570.05,311.046s1.755,6.416,5.917,4.185a1.135,1.135,0,0,0,.943-.943s-.329.1-.435-.575a3.01,3.01,0,0,0-.2-.695,1.514,1.514,0,0,0-.628-.72h0s-1.331-1.52-4.464-1.23c0,0-.8-.3-.96-.22l.815.909a2.027,2.027,0,0,1,1.375-.558s-1.364.5-1.261.692c.02.039.452.463.452.463a3.3,3.3,0,0,1,2.254-.935s-1.7.379-2.092,1.1l.692.6a3.484,3.484,0,0,1,2.424-1.085s-1.769.458-2.265,1.205l.759.5a3.384,3.384,0,0,1,2.2-1.046s-1.989.736-2.02,1.147a4.4,4.4,0,0,0,.971.435s.837-.8,1.445-.689c0,0-1.278.63-1.233.781a4.955,4.955,0,0,0,1.716.145,3.389,3.389,0,0,1-1.752.025,1.88,1.88,0,0,0,.773.748s-.658.12-1.038-.82a4.348,4.348,0,0,1-.923-.377,4.068,4.068,0,0,0,.7,1.47,1.812,1.812,0,0,1-.9-1.6l-.767-.477a5.8,5.8,0,0,0,.622,1.783,2.3,2.3,0,0,1-.809-1.919l-.684-.58a7.043,7.043,0,0,0,.432,1.758,2.784,2.784,0,0,1-.619-1.933l-.413-.441s.112.837.167,1.074,0,.279,0,.279a2.87,2.87,0,0,1-.338-1.529A6.884,6.884,0,0,0,570.05,311.046Z" transform="translate(-425.371 -235.161)" fill="#3e4f87" opacity="0.1"/>
      <path id="Path_5353" data-name="Path 5353" d="M392.646,250.688a15.27,15.27,0,0,0,2.006,1.931l5.434,4.631a9.552,9.552,0,0,0,3.18,2.062,4.977,4.977,0,0,0,4.341-.667l-.092-.031.092-.061a8.2,8.2,0,0,1-2.614-1.2,2.938,2.938,0,0,1-1.149-1.953h0v-.114a2.042,2.042,0,0,1,.031-.315,6.916,6.916,0,0,0,3.272-1.152l-.095-.033.095-.059c-2.9-.929-4.9-3.646-5.811-6.522a33.059,33.059,0,0,1-1.01-8.949c-.1-3.01-.321-6.1-1.621-8.827a14.491,14.491,0,0,1-1.353-3.1,4.817,4.817,0,0,1-.092-1,13.3,13.3,0,0,1,.619-3.2,66.756,66.756,0,0,0,1.529-7.117,16.693,16.693,0,0,0,.248-2.581,6.631,6.631,0,0,0-.4-2.48c-1.278-3.32-5.719-4.885-6.4-8.369a7.328,7.328,0,0,1-.1-1.42v-.781c0-.259,0-.558-.022-.815-.192-2.452-1.71-4.581-3.175-6.57-1.763-2.394-3.627-4.882-6.335-6.157a15.068,15.068,0,0,0-7.424-1.1,19.312,19.312,0,0,0-3.677-2.5A16.581,16.581,0,0,0,366.1,179.9c-2.692-.3-5.353.736-8.054.909-3.671.237-7.276-1.116-10.947-1.395s-7.9.957-9.538,4.653a8.874,8.874,0,0,0-.692,2.826h0c-.017.187-.028.371-.036.558v.02a17.563,17.563,0,0,0,.064,2.262v.086a4.134,4.134,0,0,0,.045.452.42.42,0,0,0,.014.131,3.561,3.561,0,0,0,.047.418l.017.131c.022.176.047.352.07.527a5.615,5.615,0,0,0,.232,1.066,2,2,0,0,0,.3.558,2.36,2.36,0,0,0,1.618.753l.488.07c-.05.1-.1.2-.151.3A17.344,17.344,0,0,0,337.9,201.7a17.652,17.652,0,0,0,14.987,17.375l.511.636c3.13,3.922,7.058,9.159,8.927,12.928-2.159,2.681-4.687,7.435-5.407,15.408l-1.068,2.494c-2.24,3.222-2.818,7.87-2.24,12.194-.63,2.338-1.35,5.275-1.85,7.705-3.713-.823-16.387-2.859-19.383-4.837l-8.788-4.14s-11.438-7.99-17.592-5.323a49.369,49.369,0,0,0-7.429-7.061c-2.622-1.967-9.145-9.65-9.145-9.65L279.2,225.862a7.19,7.19,0,0,0-.625-3.49c-1.205-1.612-7.585-5.192-8.86-4.419s-2.341-1.674-2.341-1.674l-.1-.053c-.24-.139-.921-.524-1.866-1.032a24.8,24.8,0,0,1,.084-3.4c.02-.19.045-.379.073-.558a15.553,15.553,0,0,0,14.551-11.868c.045-.176.075-.357.112-.536a2.742,2.742,0,0,0,2.575-.748,4.117,4.117,0,0,0,.647-3.708,34.675,34.675,0,0,1-.976-3.791c-.176-1.771.449-3.627-.126-5.3a5.892,5.892,0,0,0-3.111-3.144c-1.356-.678-2.84-1.074-4.226-1.691-1.322-.586-2.553-1.373-3.925-1.836a16.209,16.209,0,0,0-5.579-.577,14.092,14.092,0,0,0-3.655-1.074,5.2,5.2,0,0,0-3.992,1.041c-.837.742-1.518,1.933-2.653,1.972a3.427,3.427,0,0,1-1.557-.494c-1.409-.675-3.191-1.057-4.464-.162a4.607,4.607,0,0,0-1.571,3.253,10.573,10.573,0,0,1-.8,3.607,15.658,15.658,0,0,1-1.381,1.838,7.9,7.9,0,0,0-1.543,5.429v.056c-.067-.279-.131-.538-.179-.812a4.562,4.562,0,0,0,.028.617,15.876,15.876,0,0,0,.622,2.82l1.155,4.045a23.766,23.766,0,0,0,2.3,5.964,9.823,9.823,0,0,0,1.565,1.967,7.228,7.228,0,0,0,3.507,2.034,4.494,4.494,0,0,0,1.434.086.925.925,0,0,1-.025.173c-.1-.02-.209-.042-.307-.056a2.979,2.979,0,0,0-1.37.036c-2.2.784-2.873,3.169-3.069,4.106-.045.24-.059.385-.059.385s.036.139.078.377l-.02.081c-.045.237-.059.385-.059.385s.036.139.078.382l-.575.014-9.611,1.255a22,22,0,0,0-5.4.081,2.229,2.229,0,0,0-.279.081c-1.395.483-7.786,4.893-13.522,8.952a2.1,2.1,0,0,0-.017-.326l-1.632,1.161v.338c-.407.279-.812.575-1.2.856-1.755,1.255-3.348,2.388-4.533,3.256-1.445,1.038-2.341,1.693-2.341,1.693a1.693,1.693,0,0,0-.882.99c-.452,1.046-.608,3.15,1.024,7.29a57.1,57.1,0,0,1,3.543,12.35,8.877,8.877,0,0,0-2.3.558,4.166,4.166,0,0,0-2.5,2.232,3.842,3.842,0,0,0-.02,2.483c1.345,4.771,23.6,31.859,23.6,31.859l.279.025a19.556,19.556,0,0,0,3.431,0,3.907,3.907,0,0,0,2.461-.882s4.935,6.336,12.183,2.02c-.05,5.747-.2,9.962.717,12.085,1.42,3.3,1.42,10.8,1.42,10.8l1.35.047c-.073.279-.153.558-.24.837-.622,2.056-1.54,4.542-2.511,5.136-1.635,1-.859,18.267-.792,19.757h0v.089l-.095,6.974v.558a6.751,6.751,0,0,1-.544-.859s-2.628,2.511-2.675,7.811a50.87,50.87,0,0,0,.047,5.479s10.6-.41,12.59.321,18.624-.636,18.624-.636a2.446,2.446,0,0,0-1.158-2.832c2.829-.2,5.914-.745,7.722-2.056,3.975-2.871-8.021-5.108-8.857-5.563s-4.982-4.112-6.7-5.482a3.482,3.482,0,0,0-1.769-.658l.215-6.252c2.553-2.876,5.317-18.736,5.317-18.736.9-.753,1.3-2.586,1.459-3.7a1.7,1.7,0,0,0,1.163-1.559h0c2.921.1,6.595.075,7.3-.625,1.205-1.194,1.063-5.264,1.063-5.264l-1.7-43.085-.112-.165a21.48,21.48,0,0,0,.017-5.948c3.822,1.091,6.8,1.833,6.8,1.833s5.752,1.06,9.789,1.953a6.6,6.6,0,0,0-1.462,2.455c-3.627,10.322,16.942,9.9,16.942,9.9l9.711,4.491,22.859,7.471c-7.345-2.168-15.737-4.717-21.448-6.467a15,15,0,0,0-1.713-.416,14.566,14.566,0,0,0-14.018,5.169c-.039.053-.075.1-.117.151a6.137,6.137,0,0,0-.145,7.284c.873,1.236,2.042,2.879,3.412,4.79-2.9.876-7.694,3.317-4.779,9.594,4.04,8.7,14.883,13.67,14.883,13.67s7.089,2.036,8.927,4.282a32.965,32.965,0,0,0,5.119,3.713c1.674,1.771,2.985,2.929,3.763,3.186,3.108,1.024,9.159,5.937,13.416,9.622l-.639,8.8-.042.53-.262-.223a11.045,11.045,0,0,1-7.34,5.214,4.673,4.673,0,0,0-2.731,1.78l-.02.025-.162.234-.123-.092c-1.116,1.571-1.635,3.858,2.578,4.489a48.437,48.437,0,0,0,13.949-.421l6.573-6.076a6.455,6.455,0,0,0,2.511,1.3c4.913,1.116,18.711,6.456,18.711,6.456,0-1.5,12.194-20.77,12.194-20.77,16.459-31.156-1.44-54.439-3.417-56.863l-.176-.212-.153-2.589-.033-.594s8.883-3.928,5.479-5.8-5.3-10.855-8.506-14.6c-2.511-2.918-2.366-9.692-2.631-15.464a9.292,9.292,0,0,0,1.8,3.906c.02.025.042.045.061.07l-.237-.206A2.868,2.868,0,0,0,392.646,250.688ZM283.2,248.295a39.3,39.3,0,0,0,4.464,3.8c-1.585-.773-2.818-1.426-3.769-1.953C283.668,249.525,283.433,248.906,283.2,248.295ZM249.359,219.1a4.611,4.611,0,0,1-1.437,2.1l-.558-2.408C248.1,218.9,248.776,219.014,249.359,219.1Zm111.5,66.148c.22-.474.449-.94.681-1.395a5.231,5.231,0,0,0,2.48-1.724,35.406,35.406,0,0,1,1.077,5.15v.126a7.855,7.855,0,0,1-.315,2.073c-.257.815-.725,1.582-1.576,1.674a31.122,31.122,0,0,1-4.706-1.1c-.756-.206-1.587-.438-2.474-.689C357.417,289.273,359.353,288.489,360.86,285.248Zm21.83-58.864a4.6,4.6,0,0,0-2.94-1.688c-.243-.162-.619-.418-1.1-.767-2.343-1.716-7.022-5.579-9.167-10.515a11.813,11.813,0,0,0,1.746-.639,12.628,12.628,0,0,0,2.466-1.493c.257-.2.508-.41.748-.628a13.024,13.024,0,0,0,1.674-1.827c.2-.279.391-.544.558-.837a12.86,12.86,0,0,0,.742-1.333,16.621,16.621,0,0,0,1.169-3.348c.109-.463.2-.935.279-1.409s.148-.951.2-1.431a40.4,40.4,0,0,0,.2-5.1v-.335h0a24.936,24.936,0,0,0-.558-5.13c.126.047.251.095.371.151a3.755,3.755,0,0,1,.575.349c-.045-.064-.095-.128-.142-.193a7.247,7.247,0,0,1,1.953,2.156,30.791,30.791,0,0,1,3.3,26.332,15.735,15.735,0,0,0-1,3.646c-.393,4.494,3.906,7.923,5.5,12.147a22.017,22.017,0,0,1,1.032,6.785c-1.205-5.878-5.61-11.664-7.6-14.886Z" transform="translate(-165.143 -138.609)" fill="url(#linear-gradient)"/>
      <path id="Path_5354" data-name="Path 5354" d="M403.4,664.659s-.209,3.487-1.534,4.6c0,0-2.72,15.762-5.231,18.622l-.418,1.6L385.75,688.3l2.092-13.949L389.8,661.52Z" transform="translate(-292.486 -488.013)" fill="#ffc1c8"/>
      <path id="Path_5355" data-name="Path 5355" d="M403.4,664.659s-.209,3.487-1.534,4.6c0,0-2.72,15.762-5.231,18.622l-.418,1.6L385.75,688.3l2.092-13.949L389.8,661.52Z" transform="translate(-292.486 -488.013)" opacity="0.03"/>
      <path id="Path_5356" data-name="Path 5356" d="M343.188,712.925l4.508-.2-.24,7.1-3.451,2.313-6.216-1.361,2.268-9.485Z" transform="translate(-243.553 -512.86)" fill="#ff748f"/>
      <path id="Path_5357" data-name="Path 5357" d="M343.188,712.925l4.508-.2-.24,7.1-3.451,2.313-6.216-1.361,2.268-9.485Z" transform="translate(-243.553 -512.86)" opacity="0.03"/>
      <path id="Path_5358" data-name="Path 5358" d="M400.127,778.512s3.54-1.043,5.22.318,5.764,4.991,6.581,5.446,12.6,2.678,8.712,5.535-13.885,2.042-13.885,2.042-6.536-1.908-6.718-2-4.185-2.042-4.31-2.179,1.133-9.206,1.133-9.206Z" transform="translate(-299.674 -572.092)" fill="#5d618c"/>
      <path id="Path_5359" data-name="Path 5359" d="M400.127,778.512s3.54-1.043,5.22.318,5.764,4.991,6.581,5.446,12.6,2.678,8.712,5.535-13.885,2.042-13.885,2.042-6.536-1.908-6.718-2-4.185-2.042-4.31-2.179,1.133-9.206,1.133-9.206Z" transform="translate(-299.674 -572.092)" opacity="0.03"/>
      <path id="Path_5360" data-name="Path 5360" d="M259.43,358.231l-.209,12.967-.474,27.66-.279.243c-8.3,7.184-14.158-.418-14.158-.418a3.805,3.805,0,0,1-2.421.876,18.924,18.924,0,0,1-3.376,0l-.279-.025S216.328,372.592,215,367.85a3.867,3.867,0,0,1,.02-2.466,4.13,4.13,0,0,1,2.458-2.207,8.669,8.669,0,0,1,2.265-.558,57.321,57.321,0,0,0-3.487-12.275c-1.607-4.115-1.451-6.2-1.007-7.253a1.679,1.679,0,0,1,.868-.985s.882-.65,2.3-1.674c1.18-.862,2.734-1.989,4.464-3.236l1.6-1.149c5.917-4.246,13.048-9.245,14.507-9.764a2.134,2.134,0,0,1,.279-.081c2.993-.723,13.039.778,13.039.778Z" transform="translate(-169.235 -246.098)" fill="#3e4f87"/>
      <path id="Path_5361" data-name="Path 5361" d="M320.43,358.245l-.209,12.967c-9.923-2.926-19.149-22.318-20.365-23.847-1.041-1.328.028-16.116.421-21.143,2.993-.723,13.039.778,13.039.778Z" transform="translate(-230.235 -246.113)" fill="none"/>
      <path id="Path_5362" data-name="Path 5362" d="M320.43,358.245l-.209,12.967c-9.923-2.926-19.149-22.318-20.365-23.847-1.041-1.328.028-16.116.421-21.143,2.993-.723,13.039.778,13.039.778Z" transform="translate(-230.235 -246.113)" opacity="0.1"/>
      <path id="Path_5363" data-name="Path 5363" d="M610.492,349.364s-7.742,3.975-8.718,19.6c0,0-1.255,7.951-1.953,9.346s-4.045,14.576-3.627,16.181c0,0-.7,1.6-3.278.907s-16.529-2.859-19.668-4.952l-8.648-4.115s-16.878-11.926-20.435-1.674,16.669,9.839,16.669,9.839l9.555,4.464,28.944,9.549s3.836,1.744,6.416-3.836a65.473,65.473,0,0,1,5.859-10.043s5.858-16.459,5.789-19.249,6.277-9.415,6.277-9.415,1.255-17.575-9.067-17.227Z" transform="translate(-406.405 -262.485)" fill="#ffc1c7"/>
      <path id="Path_5364" data-name="Path 5364" d="M610.492,349.364s-7.742,3.975-8.718,19.6c0,0-1.255,7.951-1.953,9.346s-4.045,14.576-3.627,16.181c0,0-.7,1.6-3.278.907s-16.529-2.859-19.668-4.952l-8.648-4.115s-16.878-11.926-20.435-1.674,16.669,9.839,16.669,9.839l9.555,4.464,28.944,9.549s3.836,1.744,6.416-3.836a65.473,65.473,0,0,1,5.859-10.043s5.858-16.459,5.789-19.249,6.277-9.415,6.277-9.415,1.255-17.575-9.067-17.227Z" transform="translate(-406.405 -262.485)" opacity="0.03"/>
      <path id="Path_5365" data-name="Path 5365" d="M471.835,399.64a13.469,13.469,0,0,0,2.371,1.5s6.416,7.636,9,9.588,11.019,9.415,9.312,12.241-3.627,2.2-3.627,2.2l-15.1-10.462s-5.3-3.8-6.38-5.613a41.943,41.943,0,0,1-2.408-5.61Z" transform="translate(-349.628 -299.191)" fill="#ffc1c8"/>
      <path id="Path_5366" data-name="Path 5366" d="M471.835,399.64a13.469,13.469,0,0,0,2.371,1.5s6.416,7.636,9,9.588,11.019,9.415,9.312,12.241-3.627,2.2-3.627,2.2l-15.1-10.462s-5.3-3.8-6.38-5.613a41.943,41.943,0,0,1-2.408-5.61Z" transform="translate(-349.628 -299.191)" opacity="0.03"/>
      <path id="Path_5367" data-name="Path 5367" d="M400.016,313.32l10.844,14.54-9.764,3.8-4.045-12.172Z" transform="translate(-286.281 -225.913)" fill="#dce6f2"/>
      <path id="Path_5368" data-name="Path 5368" d="M400.016,313.32l10.844,14.54-9.764,3.8-4.045-12.172Z" transform="translate(-286.281 -225.913)" opacity="0.03"/>
      <path id="Path_5369" data-name="Path 5369" d="M447.8,485.77l1.953,2.859,1.674,42.823s.139,4.045-1.046,5.231-10.88.418-10.88.418.349-43.659.488-44.5S447.8,485.77,447.8,485.77Z" transform="translate(-331.241 -361.293)" fill="#575988"/>
      <path id="Path_5370" data-name="Path 5370" d="M447.8,485.77l1.953,2.859,1.674,42.823s.139,4.045-1.046,5.231-10.88.418-10.88.418.349-43.659.488-44.5S447.8,485.77,447.8,485.77Z" transform="translate(-331.241 -361.293)" opacity="0.1"/>
      <path id="Path_5371" data-name="Path 5371" d="M379.217,670.783a35.4,35.4,0,0,1-2.232,4.531s-1.813,10.347-2.586,11.3c-.558.7-.815,5.9-.907,8.617-.033.982-.047,1.638-.047,1.638l-10.662,5.083-.047-6.718v-.089h0c-.067-1.481-.837-18.638.778-19.637.949-.589,1.852-3.069,2.463-5.1.466-1.571.759-2.885.759-2.885s11.845-.77,12.833.5C379.931,668.473,379.68,669.572,379.217,670.783Z" transform="translate(-275.718 -492.174)" fill="#ffc1c8"/>
      <path id="Path_5372" data-name="Path 5372" d="M388.177,670.747c-4.8-.1-10.824-.3-13.257-.391.466-1.571.759-2.885.759-2.885s11.845-.77,12.833.5C388.891,668.437,388.64,669.536,388.177,670.747Z" transform="translate(-284.678 -492.138)" opacity="0.1"/>
      <path id="Path_5373" data-name="Path 5373" d="M365.194,451.42s-3.278,17.436-2.65,28.665-.488,19.523.907,22.806,1.395,10.741,1.395,10.741,18.97.7,20.923.418,1.883-1.744,1.883-1.744-1.325-11.583-.07-15.21,1.046-14.716,1.046-14.716l5.3-17.854s1.6-8.021-1.744-11.3S365.194,451.42,365.194,451.42Z" transform="translate(-275.696 -336.289)" fill="#575988"/>
      <path id="Path_5374" data-name="Path 5374" d="M622.93,658.309l-.837,1.227-5.175,7.7-4.394,1.325-3.278-3.208.159-2.117.817-10.994s-20.281-11.932-22.095-14.164-8.788-4.254-8.788-4.254-10.671-4.952-14.646-13.6,6.626-9.973,6.626-9.973l39.824,38.086Z" transform="translate(-420.867 -451.046)" fill="#ffc1c7"/>
      <path id="Path_5375" data-name="Path 5375" d="M688.147,744.528l-5.175,7.7-4.394,1.325-3.278-3.208.159-2.117,3.607,3.094,6.765-7.881Z" transform="translate(-486.906 -536.041)" opacity="0.1"/>
      <path id="Path_5376" data-name="Path 5376" d="M717.018,788.772l-12.624,11.787a47.3,47.3,0,0,1-13.74.418c-4.146-.625-3.348-2.9-2.257-4.464l.02-.028a4.586,4.586,0,0,1,2.689-1.769,10.868,10.868,0,0,0,7.22-5.181l3.906,3.348L709,785l5,2.349Z" transform="translate(-510.073 -577.045)" fill="#575988"/>
      <path id="Path_5377" data-name="Path 5377" d="M716.562,795.344l-12.624,11.792a47.3,47.3,0,0,1-13.739.418c-4.146-.625-3.627-2.9-2.536-4.464a8.648,8.648,0,0,0,4.349,1.811,69.471,69.471,0,0,0,8.927,0l12.6-10.972Z" transform="translate(-509.616 -583.484)" fill="#fff"/>
      <path id="Path_5378" data-name="Path 5378" d="M383.331,283.739c-1.027.513-1.5,2.1-1.688,3.906a33.374,33.374,0,0,0,.2,6.8s-13.949-3.814-12.459-4.558c.856-.427,1.311-3.535,1.543-6.093.173-1.891.223-3.484.223-3.484S386.121,282.344,383.331,283.739Z" transform="translate(-280.604 -213.151)" fill="#ffc1c8"/>
      <path id="Path_5379" data-name="Path 5379" d="M738.343,298.184s-16.925,15.994-16.367,11.346a5.652,5.652,0,0,0-.586-2.6c-1.565-3.772-5.892-9.627-9.276-13.91-2.483-3.141-4.464-5.437-4.464-5.437s21.021-17.667,19.347-7.624a12.049,12.049,0,0,0,.918,6.746c2.1,4.932,6.737,8.813,9.056,10.526C737.807,297.846,738.343,298.184,738.343,298.184Z" transform="translate(-524.585 -210.671)" fill="#ffc1c7"/>
      <path id="Path_5380" data-name="Path 5380" d="M724.687,283.024c-.3.377-1.431,1.7-1.766,2.048-3.18,3.311-3.6,8.09-8.556,8.09a17.391,17.391,0,0,1-2.232-.142c-2.483-3.141-4.464-5.437-4.464-5.437s21.015-17.667,19.341-7.624C726.615,282.341,723.8,280.938,724.687,283.024Z" transform="translate(-524.599 -210.671)" opacity="0.1"/>
      <path id="Path_5381" data-name="Path 5381" d="M703.957,225.42a17.414,17.414,0,1,1-5.1-12.381,17.484,17.484,0,0,1,5.1,12.381Z" transform="translate(-496.71 -160.97)" fill="#ffc1c7"/>
      <path id="Path_5382" data-name="Path 5382" d="M773.853,350.364s-16.925,15.994-16.367,11.346a5.652,5.652,0,0,0-.586-2.6l2.447-5.769a16.552,16.552,0,0,1,10.827-4.1,15.755,15.755,0,0,1,2.168.148l.139.022C773.318,350.027,773.853,350.364,773.853,350.364Z" transform="translate(-560.095 -262.851)" opacity="0.1"/>
      <path id="Path_5383" data-name="Path 5383" d="M657.436,468.976s-12,19.154-12,20.644c0,0-13.578-5.3-18.412-6.416s-9.393-11.251-9.393-11.251-12.833-12.091-17.854-13.765c-4.26-1.42-24.731-30.3-30.829-39.009a6.137,6.137,0,0,1,.145-7.239l.114-.148A14.253,14.253,0,0,1,583,406.653a14.406,14.406,0,0,1,1.674.413c8.782,2.714,23.992,7.379,31.664,9.485a32.221,32.221,0,0,0,4.631,1.091c.837-.087,1.3-.837,1.551-1.66a7.891,7.891,0,0,0,.31-2.059V413.8a35.391,35.391,0,0,0-1.1-5.245c-.9-3.069-2.447-6.67-5.021-8.392-2.137-1.426-3.836-4.57-4.726-8.224-1.2-4.935-.921-10.807,1.749-14.652l2.58-6.087,4.316-10.183,2.4-5.674a16.552,16.552,0,0,1,10.827-4.1,15.757,15.757,0,0,1,2.168.148c1.849.257,3.448.812,4.115,1.905,2.045,3.348,6.7,9.485,7.624,15.623s-.184,16.181,2.977,19.9,5.022,12.646,8.369,14.507-5.393,5.764-5.393,5.764l.033.589.151,2.575s.061.07.173.209C656.022,414.871,673.617,438.012,657.436,468.976Z" transform="translate(-423.779 -264.293)" fill="#ff6584"/>
      <path id="Path_5384" data-name="Path 5384" d="M795.481,563.516c-3.666.767-11.684,2.438-15.26,3.172l-.628.128c-.209.042-.444.081-.7.117-3.593.494-11.388.251-14.956.106a7.885,7.885,0,0,0,.31-2.059v-.126a117.861,117.861,0,0,0,14.66-1.822c.449-.092.893-.19,1.325-.279.625-.145,1.233-.3,1.813-.46a48.8,48.8,0,0,1,13.112-1.551l.151,2.575S795.355,563.377,795.481,563.516Z" transform="translate(-565.171 -415.349)" fill="#575988"/>
      <path id="Path_5385" data-name="Path 5385" d="M818.825,567.92v3.945l-.628.128c-.209.042-.444.081-.7.117v-3.889C817.949,568.118,818.393,568.02,818.825,567.92Z" transform="translate(-603.789 -420.525)" fill="#ff6584"/>
      <path id="Path_5386" data-name="Path 5386" d="M762.578,595s-7.463,17.087-12,18.761-15.832,7.6-15.832,7.6,6.486,5.719,13.251-.558S764.531,597.79,762.578,595Z" transform="translate(-544.124 -440.051)" opacity="0.1"/>
      <path id="Path_5387" data-name="Path 5387" d="M862.068,586.77s.7,6.486-.279,7.672S862.068,586.77,862.068,586.77Z" transform="translate(-635.455 -434.117)" opacity="0.1"/>
      <path id="Path_5388" data-name="Path 5388" d="M839.675,602s3.766,39.475-14.925,39.684C824.75,641.69,842.256,624.318,839.675,602Z" transform="translate(-609.017 -445.098)" opacity="0.1"/>
      <path id="Path_5389" data-name="Path 5389" d="M890.924,636s5.37,20.714-1.674,23.085A52.541,52.541,0,0,0,890.924,636Z" transform="translate(-655.523 -469.613)" opacity="0.1"/>
      <path id="Path_5390" data-name="Path 5390" d="M744.813,617c-.349,0-14.507,2.441-11.438,4.394S744.813,617,744.813,617Z" transform="translate(-542.82 -455.913)" opacity="0.1"/>
      <path id="Path_5391" data-name="Path 5391" d="M810.5,516.77s11.578,10.252,9.346,11.368" transform="translate(-598.742 -383.645)" opacity="0.1"/>
      <path id="Path_5392" data-name="Path 5392" d="M807,528.52s6.7,8.23,5.928,8.718" transform="translate(-596.219 -392.117)" opacity="0.1"/>
      <path id="Path_5393" data-name="Path 5393" d="M858.25,524s3.069,3.836,2.581,4.673" transform="translate(-633.171 -388.858)" opacity="0.1"/>
      <path id="Path_5394" data-name="Path 5394" d="M869.25,516.77s4.394,3.412,3.417,4.743" transform="translate(-641.102 -383.645)" opacity="0.1"/>
      <path id="Path_5395" data-name="Path 5395" d="M752.008,367.77s14.3,1.116,13.67,12.624-11.3,14.437-11.3,14.437L740.5,390.855S746.707,368.537,752.008,367.77Z" transform="translate(-548.27 -276.212)" fill="#ffc1c7"/>
      <path id="Path_5396" data-name="Path 5396" d="M623.875,550.283c8.782,2.714,23.992,7.379,31.664,9.485a4.056,4.056,0,0,1-3.272.181L623.323,550.4l-1.133-.53A14.42,14.42,0,0,1,623.875,550.283Z" transform="translate(-462.966 -407.511)" opacity="0.1"/>
      <path id="Path_5397" data-name="Path 5397" d="M747.762,393.411c-1.359,1.813-2.555,3.766-2.511,4.988a29.221,29.221,0,0,1-1.333,5.772,96.493,96.493,0,0,1-8.09,19.171c-.9-3.069-2.447-6.67-5.022-8.392-2.137-1.426-3.836-4.57-4.726-8.224a48.389,48.389,0,0,1,1.587-5.4c.7-1.395,1.953-9.346,1.953-9.346a41.788,41.788,0,0,1,.789-6,25.267,25.267,0,0,1,4.316-10.183,12.051,12.051,0,0,1,3.627-3.42l4.115-.628c4.743-.159,7.03,3.448,8.132,7.4A16.538,16.538,0,0,1,747.762,393.411Z" transform="translate(-537.873 -279.083)" opacity="0.1"/>
      <path id="Path_5398" data-name="Path 5398" d="M594.492,368.407s-7.742,3.975-8.718,19.6c0,0-1.255,7.951-1.953,9.346s-4.045,14.576-3.627,16.18c0,0-.7,1.6-3.278.907s-16.529-2.859-19.668-4.952l-8.648-4.115s-16.878-11.926-20.435-1.674,16.669,9.839,16.669,9.839L554.389,418l28.944,9.549s3.836,1.744,6.416-3.836c.644-1.395,1.334-2.72,2.006-3.925a96.982,96.982,0,0,0,8.316-19.578,28.207,28.207,0,0,0,1.333-5.772c-.031-1.222,1.169-3.178,2.511-4.988a16.443,16.443,0,0,0,2.818-14.256c-1.1-3.953-3.4-7.56-8.132-7.4Z" transform="translate(-394.869 -276.227)" fill="#ffc1c7"/>
      <path id="Path_5399" data-name="Path 5399" d="M387.606,283.71c-1.027.513-1.5,2.1-1.688,3.906h-.544a15.26,15.26,0,0,1-10.174-3.861c.173-1.891.223-3.484.223-3.484S390.4,282.315,387.606,283.71Z" transform="translate(-284.879 -213.122)" opacity="0.1"/>
      <path id="Path_5400" data-name="Path 5400" d="M387.357,209.944A15.344,15.344,0,1,1,372.014,194.6a15.344,15.344,0,0,1,15.344,15.344Z" transform="translate(-271.519 -151.352)" fill="#ffc1c8"/>
      <path id="Path_5401" data-name="Path 5401" d="M381.234,349.034s-8.021,3.208-10.531,4.324-16.878-1.465-16.878-1.465-7.463-3.766-6.835-7.532-6-16.105-6-16.105-.209-10.95,2.72-13.042,1.813-6.486,1.813-6.486.014-.145.059-.382c.181-.932.837-3.3,3.01-4.081a2.885,2.885,0,0,1,1.347-.036c2.084.315,5.507,1.866,8.339,3.3,2.343,1.186,4.282,2.288,4.726,2.544l.095.053s1.046,2.441,2.3,1.674,7.532,2.79,8.718,4.394.349,9.136.139,11.019,1.186,7.463,2.72,10.665S381.234,349.034,381.234,349.034Z" transform="translate(-260.212 -230.351)" opacity="0.1"/>
      <path id="Path_5402" data-name="Path 5402" d="M381.234,346.034s-8.021,3.208-10.531,4.324-16.878-1.465-16.878-1.465-7.463-3.766-6.835-7.532-6-16.105-6-16.105-.209-10.95,2.72-13.042,1.813-6.486,1.813-6.486.014-.145.059-.382c.181-.932.837-3.3,3.01-4.081a2.885,2.885,0,0,1,1.347-.036c2.084.315,5.507,1.866,8.339,3.3,2.343,1.186,4.282,2.288,4.726,2.544l.095.053s1.046,2.441,2.3,1.674,7.532,2.79,8.718,4.394.349,9.136.139,11.019,1.186,7.463,2.72,10.665S381.234,346.034,381.234,346.034Z" transform="translate(-260.212 -228.188)" fill="#dce6f2"/>
      <path id="Path_5403" data-name="Path 5403" d="M371.5,423.24s-6.882,11.159-8,11.764l.418,3.906s9.812-2.048,10.417-4.79.279-11.019.279-11.019Z" transform="translate(-276.443 -316.106)" fill="#575988"/>
      <path id="Path_5404" data-name="Path 5404" d="M371.5,423.24s-6.882,11.159-8,11.764l.418,3.906s9.812-2.048,10.417-4.79.279-11.019.279-11.019Z" transform="translate(-276.443 -316.106)" opacity="0.2"/>
      <path id="Path_5405" data-name="Path 5405" d="M426.88,372.64s1.219,4.709,3.138,6.313S426.88,372.64,426.88,372.64Z" transform="translate(-322.142 -279.723)" opacity="0.1"/>
      <path id="Path_5406" data-name="Path 5406" d="M384,409.387c.176.315,6.068,8.336,12.275,11.3s20.053,6.453,20.053,6.453,11.229,2.092,13.145,2.893,4.36-2.79-7.672-7.915-14.367-7.393-14.367-7.393-10.462-5.1-12.135-7.608S384,409.387,384,409.387Z" transform="translate(-291.225 -304.056)" fill="#ffc1c8"/>
      <path id="Path_5407" data-name="Path 5407" d="M399.75,547.228c.209-.14,5.231-5.51,5.858-3.208S399.75,547.228,399.75,547.228Z" transform="translate(-302.581 -402.88)" opacity="0.1"/>
      <path id="Path_5408" data-name="Path 5408" d="M403.04,519c-.07.209-.767,6.137-2.79,6.835" transform="translate(-302.941 -385.253)" opacity="0.1"/>
      <path id="Path_5409" data-name="Path 5409" d="M407.115,524.77s-1.813,6.347-4.115,6.76" transform="translate(-304.924 -389.413)" opacity="0.1"/>
      <path id="Path_5410" data-name="Path 5410" d="M384.75,588.133s3.069.07,3.487-1.883" transform="translate(-291.765 -433.742)" opacity="0.1"/>
      <path id="Path_5411" data-name="Path 5411" d="M399.75,638.52c.418.07,6.974,4.254,5.3,5.091S399.75,638.52,399.75,638.52Z" transform="translate(-302.581 -471.43)" opacity="0.1"/>
      <path id="Path_5412" data-name="Path 5412" d="M374.077,765.14v.644c-.033.982-.047,1.638-.047,1.638L363.367,772.5l-.047-6.718V765.7h0v-.455l4.268.137Z" transform="translate(-276.314 -562.726)" opacity="0.1"/>
      <path id="Path_5413" data-name="Path 5413" d="M324.276,736.772l-8.894,3.4-3.992-2.36.042-3.231.092-6.935,4.268.137,6.489-.226v4.857Z" transform="translate(-224.518 -524.591)" fill="#ff748f"/>
      <path id="Path_5414" data-name="Path 5414" d="M375.7,787.619l-8.894,3.4-3.992-2.36.042-3.23a6.464,6.464,0,0,0,4.9,2.539s3.13-3.906,5.035-5.038a1.163,1.163,0,0,1,.909-.123v.455Z" transform="translate(-275.946 -575.436)" opacity="0.1"/>
      <path id="Path_5415" data-name="Path 5415" d="M359.655,789.953a6.413,6.413,0,0,1-5.446-3.4s-2.586,2.5-2.634,7.761a50.351,50.351,0,0,0,.047,5.446s10.436-.407,12.389.318,18.334-.636,18.334-.636,1.088-2.859-3.858-3.858-9.03-6.263-9.167-6.489-2.723-5.3-4.628-4.185S359.655,789.953,359.655,789.953Z" transform="translate(-267.836 -576.862)" fill="#5d618c"/>
      <path id="Path_5416" data-name="Path 5416" d="M412.361,188.429l-1.041-.142.65-.017Z" transform="translate(-310.923 -146.788)" opacity="0.1"/>
      <path id="Path_5417" data-name="Path 5417" d="M387.338,209.984a15.377,15.377,0,0,1-.41,3.535,2.455,2.455,0,0,1-.661-.279c-.3-.193-.6-.458-.949-.427a1.13,1.13,0,0,0-.558.257c-1.652,1.208-2.879,3.194-4.888,3.579a3.225,3.225,0,0,0,.078-1.824,3.775,3.775,0,0,1-3.306,1.06,1.593,1.593,0,0,0,.047-1.1,32.022,32.022,0,0,1-4.4,2.045c-.053-.279-.1-.536-.156-.8-2.137,1.043-1.97,4.584-4.107,5.627-1.272.622-3.069.176-3.947,1.3-.033.045-.064.089-.095.137A15.344,15.344,0,1,1,387.332,210Z" transform="translate(-271.5 -151.393)" opacity="0.1"/>
      <path id="Path_5418" data-name="Path 5418" d="M359,183.547a15.078,15.078,0,0,0-3.984-1.227,5.065,5.065,0,0,0-3.928,1.035c-.837.736-1.492,1.919-2.608,1.953a3.357,3.357,0,0,1-1.534-.491c-1.395-.67-3.138-1.049-4.4-.162A4.572,4.572,0,0,0,341,187.89a10.35,10.35,0,0,1-.784,3.585,15.9,15.9,0,0,1-1.359,1.827,7.9,7.9,0,0,0-1.518,5.4,15.66,15.66,0,0,0,.608,2.8l1.138,4.02a23.742,23.742,0,0,0,2.265,5.928,8.034,8.034,0,0,0,4.854,3.847,3.247,3.247,0,0,0,3.448-1.018c.179-.279.293-.577.488-.837.865-1.116,2.675-.672,3.947-1.294,2.137-1.043,1.97-4.584,4.107-5.627l.159.8a32.461,32.461,0,0,0,4.4-2.042,1.61,1.61,0,0,1-.045,1.1,3.786,3.786,0,0,0,3.3-1.06,3.225,3.225,0,0,1-.078,1.824c2.009-.388,3.236-2.374,4.888-3.582a1.152,1.152,0,0,1,.558-.254c.354-.031.65.234.949.424a2.673,2.673,0,0,0,3.3-.421,4.124,4.124,0,0,0,.636-3.688,30.9,30.9,0,0,1-.957-3.766c-.176-1.76.438-3.6-.126-5.273a5.826,5.826,0,0,0-3.069-3.125c-1.342-.675-2.79-1.068-4.16-1.674-1.3-.583-2.511-1.364-3.861-1.824a17.492,17.492,0,0,0-6.137-.558" transform="translate(-257.559 -142.466)" fill="#794f6a"/>
      <path id="Path_5419" data-name="Path 5419" d="M347.5,336.136s2.232-15.017-16.878-14.275L321,323.142s9.181,1.652,11.391,1.894l.234.034C334.67,325.443,341.739,324.977,347.5,336.136Z" transform="translate(-245.8 -243.091)" fill="#3e4f87"/>
      <path id="Path_5420" data-name="Path 5420" d="M372.25,579.653v-.173C380.086,572.7,372.25,579.653,372.25,579.653Z" transform="translate(-282.752 -426.721)" opacity="0.1"/>
      <path id="Path_5421" data-name="Path 5421" d="M242.421,495.645a18.924,18.924,0,0,1-3.376,0L215.57,461.477a4.13,4.13,0,0,1,2.458-2.207Z" transform="translate(-169.782 -342.186)" fill="#575988"/>
      <path id="Path_5422" data-name="Path 5422" d="M227.789,400.276l-1.116,1.325s-8.464-14.06-10.283-21.2a1.679,1.679,0,0,1,.868-.985s.882-.65,2.3-1.674C220.086,381.1,221.886,389.312,227.789,400.276Z" transform="translate(-170.373 -283.401)" fill="#575988"/>
      <path id="Path_5423" data-name="Path 5423" d="M256.778,381.533l-2.232,1.255c-6.093-7.131-6.612-19.11-6.556-23.883l1.607-1.155C249.815,364.019,256.778,381.533,256.778,381.533Z" transform="translate(-193.156 -268.987)" fill="#575988"/>
      <path id="Path_5424" data-name="Path 5424" d="M298.1,438.52c-.07.907-2.65,10.113,1.116,11.647S298.1,438.52,298.1,438.52Z" transform="translate(-228.623 -327.224)" opacity="0.1"/>
      <path id="Path_5425" data-name="Path 5425" d="M329.5,484.274c.139.488,1.395,16.39,4.115,15.134s1.255-19.389,1.255-19.389Z" transform="translate(-251.929 -357.147)" opacity="0.1"/>
      <path id="Path_5426" data-name="Path 5426" d="M708.232,225.358a17.414,17.414,0,0,1-4.876,12.107,10.188,10.188,0,0,1-3.878.067,3.861,3.861,0,0,1-1.813-.728,4.719,4.719,0,0,1-1.175-1.7c-1.018-2.19-1.54-4.72-2.968-6.595s-4.327-2.7-5.705-.776c-.75,1.043-.876,2.647-1.878,3.37-1.2.87-2.79-.153-3.724-1.395-2.762-3.627-1.816-10.757-7.083-11.759l-.212-.036a17.483,17.483,0,0,1,33.312,7.443Z" transform="translate(-500.985 -160.908)" opacity="0.1"/>
      <path id="Path_5427" data-name="Path 5427" d="M668.389,205.6c-.854-.165-1.844-.142-2.416-.879a3.381,3.381,0,0,1-.516-1.61c-.343-2.472-.53-5.125.455-7.365,1.615-3.674,5.772-4.9,9.385-4.628s7.159,1.621,10.771,1.395c2.656-.173,5.275-1.2,7.923-.907a16.122,16.122,0,0,1,5.931,2.338,14.189,14.189,0,0,1,4.815,3.786c1.836,2.525,2.182,6.012,2.232,9.284.061,3.841-.209,7.831-1.822,11.212-2.338,4.907-7.552,7.828-12.412,6.949a3.861,3.861,0,0,1-1.813-.728,4.744,4.744,0,0,1-1.172-1.7c-1.021-2.193-1.543-4.72-2.971-6.6s-4.327-2.695-5.705-.773c-.75,1.041-.876,2.647-1.877,3.37-1.2.868-2.79-.156-3.724-1.395C672.711,213.721,673.656,206.6,668.389,205.6Z" transform="translate(-493.964 -148.813)" fill="#945b79"/>
      <path id="Path_5428" data-name="Path 5428" d="M804.821,211.032c2.659,1.269,4.5,3.741,6.235,6.121,1.442,1.978,2.935,4.093,3.125,6.531a26.08,26.08,0,0,0,.117,3c.667,3.468,5.021,5.022,6.294,8.325a9.684,9.684,0,0,1,.145,4.935,66.591,66.591,0,0,1-1.5,7.066,9.409,9.409,0,0,0-.516,4.263,13.085,13.085,0,0,0,1.328,3.069c1.281,2.709,1.5,5.78,1.6,8.774a33.2,33.2,0,0,0,.99,8.9c.9,2.857,2.871,5.557,5.719,6.481a6.721,6.721,0,0,1-3.219,1.144,2.687,2.687,0,0,0,1.116,2.477,8.134,8.134,0,0,0,2.572,1.191,4.854,4.854,0,0,1-4.274.658,9.581,9.581,0,0,1-3.127-2.048l-5.348-4.6a15.1,15.1,0,0,1-1.972-1.919c-3.459-4.3-1.395-10.813-3.325-15.977-1.573-4.2-5.8-7.608-5.415-12.074a15.758,15.758,0,0,1,.988-3.627,30.874,30.874,0,0,0-3.25-26.173,6.194,6.194,0,0,0-2.338-2.391c-1.548-.739-3.761-.421-4.639-1.9a7.363,7.363,0,0,1-.6-3.021A15.428,15.428,0,0,1,804.821,211.032Z" transform="translate(-587.941 -162.358)" fill="#945b79"/>
      <path id="Path_5429" data-name="Path 5429" d="M341.243,361.011a10.155,10.155,0,0,1,17.726-5.122,22.278,22.278,0,0,1,3.931,6.07c2.79,7.044,3,7.672,3,7.672s-17.227,3.348-17.087,5.858L341,363.006S341.059,362.225,341.243,361.011Z" transform="translate(-260.22 -265.104)" opacity="0.1"/>
      <path id="Path_5430" data-name="Path 5430" d="M341.243,358.011a10.155,10.155,0,0,1,17.726-5.122,22.28,22.28,0,0,1,3.931,6.07c2.79,7.044,3,7.672,3,7.672s-17.227,3.348-17.087,5.858L341,360.006S341.059,359.225,341.243,358.011Z" transform="translate(-260.22 -262.941)" fill="#dce6f2"/>
      <path id="Path_5431" data-name="Path 5431" d="M359.25,340.89c.209.349,8.439,10.392,12.763,11.823S359.25,340.89,359.25,340.89Z" transform="translate(-273.379 -256.831)" opacity="0.1"/>
      <path id="Path_5432" data-name="Path 5432" d="M232.5,457.27s21.76,25.666,24.55,36.057" transform="translate(-181.989 -340.744)" opacity="0.1"/>
      <path id="Path_5433" data-name="Path 5433" d="M235.5,372.27s4.743,24.55,13.949,34.872,18.691,27.9,18.691,27.9" transform="translate(-184.152 -279.457)" fill="none" stroke="#000" stroke-miterlimit="10" stroke-width="2" opacity="0.1"/>
      <g id="Group_4777" data-name="Group 4777" transform="translate(79.611 48.359)" opacity="0.1">
        <path id="Path_5434" data-name="Path 5434" d="M449.76,244.24a3.325,3.325,0,0,1-.792,2.232,2.673,2.673,0,0,1-3.3.421c-.3-.19-.594-.455-.949-.424a1.152,1.152,0,0,0-.558.254c-1.571,1.149-2.759,3-4.6,3.512a3.222,3.222,0,0,1-.145,1.465c2.009-.388,3.236-2.374,4.888-3.582a1.152,1.152,0,0,1,.558-.254c.354-.031.65.234.949.424a2.673,2.673,0,0,0,3.3-.421A4.118,4.118,0,0,0,449.76,244.24Z" transform="translate(-410.787 -235.503)"/>
        <path id="Path_5435" data-name="Path 5435" d="M472.434,216.424c.022.229.061.455.106.681a17.643,17.643,0,0,0,0-4.185C472.545,214.058,472.316,215.263,472.434,216.424Z" transform="translate(-434.574 -212.92)"/>
        <path id="Path_5436" data-name="Path 5436" d="M365.377,244.316a3.786,3.786,0,0,1-3.3,1.06,1.61,1.61,0,0,0,.045-1.1,32.458,32.458,0,0,1-4.4,2.042l-.159-.8c-2.137,1.043-1.97,4.584-4.107,5.627-1.272.622-3.069.173-3.947,1.294-.2.254-.31.558-.488.837a3.242,3.242,0,0,1-3.448,1.018,8.011,8.011,0,0,1-4.854-3.847,23.851,23.851,0,0,1-2.265-5.928l-1.138-4.02c-.187-.67-.377-1.339-.5-2.023a4.1,4.1,0,0,0,.031.614,15.663,15.663,0,0,0,.608,2.8l1.138,4.02a23.744,23.744,0,0,0,2.265,5.928,8.034,8.034,0,0,0,4.854,3.847,3.247,3.247,0,0,0,3.448-1.018c.179-.279.293-.577.488-.837.865-1.116,2.675-.672,3.947-1.294,2.137-1.043,1.97-4.584,4.107-5.627l.159.8a32.461,32.461,0,0,0,4.394-2.042,1.61,1.61,0,0,1-.045,1.1,3.786,3.786,0,0,0,3.175-.943A3.222,3.222,0,0,0,365.377,244.316Z" transform="translate(-336.81 -231.349)"/>
      </g>
      <path id="Path_5437" data-name="Path 5437" d="M374.911,310.07c-1.5.865-4.988,2.79-5.694,2.461-.753-.349-8.972-3.225-11.717-4.185.181-.932.837-3.3,3.01-4.081a2.885,2.885,0,0,1,1.347-.036l8.336,3.3C372.528,308.711,374.467,309.813,374.911,310.07Z" transform="translate(-272.117 -230.351)" opacity="0.1"/>
      <path id="Path_5438" data-name="Path 5438" d="M374.911,307.07c-1.5.865-4.988,2.79-5.694,2.461-.753-.349-8.972-3.225-11.717-4.185.181-.932.837-3.3,3.01-4.081a2.885,2.885,0,0,1,1.347-.036l8.336,3.3C372.528,305.711,374.467,306.813,374.911,307.07Z" transform="translate(-272.117 -228.188)" fill="#dce6f2"/>
      <path id="Path_5439" data-name="Path 5439" d="M707.043,225.982a22.332,22.332,0,0,1-1.816,9.036c-2.338,4.907-7.552,7.828-12.412,6.949a3.861,3.861,0,0,1-1.813-.728,4.742,4.742,0,0,1-1.172-1.7c-1.021-2.193-1.543-4.72-2.971-6.6s-4.327-2.695-5.705-.773c-.75,1.041-.876,2.647-1.877,3.37-1.2.868-2.79-.156-3.724-1.395-2.762-3.627-1.816-10.76-7.083-11.759-.854-.165-1.844-.142-2.416-.879a3.381,3.381,0,0,1-.516-1.61c-.095-.672-.176-1.359-.223-2.048a20.324,20.324,0,0,0,.223,4.558,3.381,3.381,0,0,0,.516,1.61c.572.736,1.562.714,2.416.879,5.267,1,4.321,8.124,7.083,11.759.932,1.225,2.511,2.249,3.724,1.395,1-.723,1.116-2.329,1.877-3.37,1.378-1.922,4.277-1.1,5.705.773s1.953,4.4,2.971,6.6a4.742,4.742,0,0,0,1.172,1.7,3.861,3.861,0,0,0,1.813.728c4.86.879,10.074-2.042,12.411-6.949,1.612-3.381,1.883-7.37,1.822-11.212C707.043,226.194,707.043,226.083,707.043,225.982Z" transform="translate(-494.029 -168.116)" opacity="0.1"/>
      <g id="Group_4778" data-name="Group 4778" transform="translate(207.933 50.468)" opacity="0.1">
        <path id="Path_5440" data-name="Path 5440" d="M875.3,290.58a9.684,9.684,0,0,1,.145,4.935,66.613,66.613,0,0,1-1.5,7.061,9.409,9.409,0,0,0-.516,4.263,13.085,13.085,0,0,0,1.328,3.069c1.281,2.709,1.5,5.78,1.6,8.774a33.2,33.2,0,0,0,.99,8.9,10.986,10.986,0,0,0,3.2,5.049,11.767,11.767,0,0,1-1.808-3.549,33.088,33.088,0,0,1-.99-8.9,21.982,21.982,0,0,0-1.6-8.771,13.517,13.517,0,0,1-1.328-3.069,9.539,9.539,0,0,1,.516-4.266,66.519,66.519,0,0,0,1.5-7.08,9.694,9.694,0,0,0-.145-4.938,9.094,9.094,0,0,0-2.391-3.189A6.517,6.517,0,0,1,875.3,290.58Z" transform="translate(-851.979 -269.791)"/>
        <path id="Path_5441" data-name="Path 5441" d="M901.2,453.452a7.288,7.288,0,0,1-2.076-1.082,6.746,6.746,0,0,1-2.539.736,2.687,2.687,0,0,0,1.116,2.477,3.872,3.872,0,0,0,.474.326,2.232,2.232,0,0,1-.187-1.314A6.779,6.779,0,0,0,901.2,453.452Z" transform="translate(-868.724 -387.679)"/>
        <path id="Path_5442" data-name="Path 5442" d="M800.272,221.431c-1.063-.508-2.438-.519-3.482-.951a2.855,2.855,0,0,0,.237.558c.879,1.473,3.091,1.155,4.639,1.9a3.809,3.809,0,0,1,.558.343A5.37,5.37,0,0,0,800.272,221.431Z" transform="translate(-796.79 -220.48)"/>
        <path id="Path_5443" data-name="Path 5443" d="M874.068,451.52a4.846,4.846,0,0,1-3.373.159,9.581,9.581,0,0,1-3.127-2.048l-5.348-4.6c-.254-.218-.5-.438-.75-.661.056.075.112.153.173.229a14.923,14.923,0,0,0,1.972,1.919l5.348,4.6a9.626,9.626,0,0,0,3.127,2.048,4.854,4.854,0,0,0,4.274-.661A9.036,9.036,0,0,1,874.068,451.52Z" transform="translate(-843.426 -381.91)"/>
        <path id="Path_5444" data-name="Path 5444" d="M840.954,224.157c1.442,1.978,2.935,4.093,3.125,6.531a26.08,26.08,0,0,0,.117,3,7.459,7.459,0,0,0,2.553,3.875,5.51,5.51,0,0,1-1.158-2.385,26.181,26.181,0,0,1-.117-3c-.19-2.438-1.674-4.553-3.125-6.528a29.832,29.832,0,0,0-3.429-4.137C839.637,222.358,840.3,223.262,840.954,224.157Z" transform="translate(-827.167 -221.223)"/>
      </g>
      <path id="Path_5445" data-name="Path 5445" d="M801.6,210.27s-1.674,2.79,3.069,5.114l.279-.745Z" transform="translate(-592.118 -162.65)" opacity="0.1"/>
      <path id="Path_5446" data-name="Path 5446" d="M800.6,210.27s-1.674,2.79,3.069,5.114l.279-.745Z" transform="translate(-591.397 -162.65)" fill="#ff6584"/>
      <path id="Path_5447" data-name="Path 5447" d="M1027.146,776.26s1.534,2.006-.706,5.021-4.087,5.579-3.348,7.468c0,0,3.381-5.621,6.137-5.7S1030.172,779.641,1027.146,776.26Z" transform="translate(-751.907 -570.744)" fill="#3e4f87"/>
      <path id="Path_5448" data-name="Path 5448" d="M1027.379,776.26a2.52,2.52,0,0,1,.315.628c2.684,3.155,4.112,6.1,1.532,6.171-2.4.07-5.284,4.366-5.976,5.451.022.084.05.165.081.248,0,0,3.381-5.621,6.138-5.7S1030.406,779.641,1027.379,776.26Z" transform="translate(-752.14 -570.744)" opacity="0.1"/>
      <path id="Path_5449" data-name="Path 5449" d="M1047.354,784.239c0,.706-.081,1.278-.179,1.278s-.176-.558-.176-1.278.1-.374.2-.374S1047.354,783.533,1047.354,784.239Z" transform="translate(-769.265 -576.167)" fill="#ffd037"/>
      <path id="Path_5450" data-name="Path 5450" d="M1048.648,787.186c-.619.338-1.161.541-1.205.455s.416-.43,1.035-.767.376-.092.424,0S1049.27,786.849,1048.648,787.186Z" transform="translate(-769.582 -578.272)" fill="#ffd037"/>
      <path id="Path_5451" data-name="Path 5451" d="M1000.105,776.26s-1.534,2.006.706,5.021,4.087,5.579,3.348,7.468c0,0-3.378-5.621-6.137-5.7S997.09,779.641,1000.105,776.26Z" transform="translate(-732.971 -570.744)" fill="#3e4f87"/>
      <path id="Path_5452" data-name="Path 5452" d="M1000.09,776.26a2.522,2.522,0,0,0-.315.628c-2.684,3.155-4.112,6.1-1.532,6.171,2.4.07,5.284,4.366,5.976,5.451a2.169,2.169,0,0,1-.084.248s-3.378-5.621-6.137-5.7S997.074,779.641,1000.09,776.26Z" transform="translate(-732.955 -570.744)" opacity="0.1"/>
      <path id="Path_5453" data-name="Path 5453" d="M998.82,784.239c0,.706.081,1.278.179,1.278s.176-.558.176-1.278-.1-.374-.2-.374S998.82,783.533,998.82,784.239Z" transform="translate(-734.526 -576.167)" fill="#ffd037"/>
      <path id="Path_5454" data-name="Path 5454" d="M994.344,787.186c.619.338,1.158.541,1.205.455s-.416-.43-1.035-.767-.377-.092-.424,0S993.725,786.849,994.344,787.186Z" transform="translate(-731.026 -578.272)" fill="#ffd037"/>
      <path id="Path_5455" data-name="Path 5455" d="M1000.57,814.123s4.285-.134,5.579-1.052,6.592-2.02,6.913-.558,6.439,7.334,1.6,7.373-11.24-.753-12.529-1.537S1000.57,814.123,1000.57,814.123Z" transform="translate(-735.787 -596.371)" fill="#a8a8a8"/>
      <path id="Path_5456" data-name="Path 5456" d="M1014.747,825.38c-4.837.039-11.24-.753-12.529-1.537-.982-.6-1.373-2.745-1.5-3.733h-.145s.279,3.456,1.562,4.243,7.691,1.576,12.529,1.537c1.395,0,1.878-.508,1.852-1.244C1016.313,825.1,1015.785,825.38,1014.747,825.38Z" transform="translate(-735.787 -602.361)" opacity="0.2"/>
      <path id="Path_5457" data-name="Path 5457" d="M287.279,789.129a3.258,3.258,0,0,0,1.071-1.612,1.442,1.442,0,0,0-.748-1.646c-.686-.262-1.42.215-1.975.695a2.638,2.638,0,0,1-1.922.926,2.921,2.921,0,0,0,.9-2.737,1.15,1.15,0,0,0-.251-.558c-.379-.407-1.071-.232-1.529.089-1.451,1.018-1.855,2.991-1.861,4.762a8.785,8.785,0,0,1-.028-1.953,2.009,2.009,0,0,0-.736-1.735,2.232,2.232,0,0,0-1.116-.279,2.323,2.323,0,0,0-1.824.519,1.794,1.794,0,0,0,.073,2.232,7.237,7.237,0,0,0,1.886,1.512,4.184,4.184,0,0,1,1.35,1.286,1.344,1.344,0,0,1,.1.232h4.07A11.372,11.372,0,0,0,287.279,789.129Z" transform="translate(-214.007 -576.296)" fill="#3e4f87"/>
      <path id="Path_5458" data-name="Path 5458" d="M193.687,708.462s-3.906-13.307.734-23.1a21.037,21.037,0,0,0,1.7-13.187,35.5,35.5,0,0,0-1.869-6.19" transform="translate(-152.895 -491.229)" fill="none" stroke="#535461" stroke-miterlimit="10" stroke-width="2"/>
      <path id="Path_5459" data-name="Path 5459" d="M194.809,636.154c0,1.629-2.954,6.361-2.954,6.361s-2.954-4.743-2.954-6.361a2.954,2.954,0,1,1,5.909,0Z" transform="translate(-150.552 -467.594)" fill="#3e4f87"/>
      <path id="Path_5460" data-name="Path 5460" d="M212.237,664.388c-.887,1.37-5.937,3.735-5.937,3.735s.089-5.579.976-6.944a2.954,2.954,0,1,1,4.961,3.209Z" transform="translate(-163.098 -486.794)" fill="#3e4f87"/>
      <path id="Path_5461" data-name="Path 5461" d="M208.691,717.066c-1.456.734-7.011.226-7.011.226s2.9-4.765,4.352-5.5a2.954,2.954,0,1,1,2.659,5.276Z" transform="translate(-159.767 -524.031)" fill="#3e4f87"/>
      <path id="Path_5462" data-name="Path 5462" d="M199.041,759.221c-1.311.971-6.871,1.395-6.871,1.395s2.048-5.186,3.348-6.157a2.954,2.954,0,1,1,3.512,4.743Z" transform="translate(-152.91 -554.542)" fill="#3e4f87"/>
      <path id="Path_5463" data-name="Path 5463" d="M181.6,677.442c1.169,1.138,6.62,2.315,6.62,2.315s-1.336-5.415-2.511-6.553a2.954,2.954,0,1,0-4.115,4.238Z" transform="translate(-144.597 -495.797)" fill="#3e4f87"/>
      <path id="Path_5464" data-name="Path 5464" d="M168.8,725.214c1.456.734,7.011.229,7.011.229s-2.893-4.768-4.352-5.5a2.953,2.953,0,0,0-2.659,5.273Z" transform="translate(-134.891 -529.908)" fill="#3e4f87"/>
      <path id="Path_5465" data-name="Path 5465" d="M165.974,775.141c1.311.968,6.871,1.395,6.871,1.395s-2.048-5.189-3.348-6.16a2.954,2.954,0,0,0-3.512,4.743Z" transform="translate(-133.25 -566.143)" fill="#3e4f87"/>
      <path id="Path_5466" data-name="Path 5466" d="M194.809,636.154c0,1.629-2.954,6.361-2.954,6.361s-2.954-4.743-2.954-6.361a2.954,2.954,0,1,1,5.909,0Z" transform="translate(-150.552 -467.594)" fill="#3e4f87"/>
      <path id="Path_5467" data-name="Path 5467" d="M212.237,664.388c-.887,1.37-5.937,3.735-5.937,3.735s.089-5.579.976-6.944a2.954,2.954,0,1,1,4.961,3.209Z" transform="translate(-163.098 -486.794)" fill="#3e4f87"/>
      <path id="Path_5468" data-name="Path 5468" d="M208.691,717.066c-1.456.734-7.011.226-7.011.226s2.9-4.765,4.352-5.5a2.954,2.954,0,1,1,2.659,5.276Z" transform="translate(-159.767 -524.031)" fill="#3e4f87"/>
      <path id="Path_5469" data-name="Path 5469" d="M199.041,759.221c-1.311.971-6.871,1.395-6.871,1.395s2.048-5.186,3.348-6.157a2.954,2.954,0,1,1,3.512,4.743Z" transform="translate(-152.91 -554.542)" fill="#3e4f87"/>
      <path id="Path_5470" data-name="Path 5470" d="M181.6,677.442c1.169,1.138,6.62,2.315,6.62,2.315s-1.336-5.415-2.511-6.553a2.954,2.954,0,1,0-4.115,4.238Z" transform="translate(-144.597 -495.797)" fill="#3e4f87"/>
      <path id="Path_5471" data-name="Path 5471" d="M168.8,725.214c1.456.734,7.011.229,7.011.229s-2.893-4.768-4.352-5.5a2.953,2.953,0,0,0-2.659,5.273Z" transform="translate(-134.891 -529.908)" fill="#3e4f87"/>
      <path id="Path_5472" data-name="Path 5472" d="M165.974,775.141c1.311.968,6.871,1.395,6.871,1.395s-2.048-5.189-3.348-6.16a2.954,2.954,0,0,0-3.512,4.743Z" transform="translate(-133.25 -566.143)" fill="#3e4f87"/>
      <path id="Path_5473" data-name="Path 5473" d="M164.45,803.224s4.773-.949,6.045-2.212,7-3.476,7.638-1.9,8.592,6.952,3.183,7.9-12.73,1.264-14.323.63S164.45,803.224,164.45,803.224Z" transform="translate(-132.923 -586.828)" fill="#a8a8a8"/>
      <path id="Path_5474" data-name="Path 5474" d="M181.317,818.376c-5.412.948-12.73,1.264-14.323.633-1.211-.483-2.053-2.79-2.385-3.869l-.159.034s.954,3.791,2.544,4.422,8.91.318,14.323-.63c1.559-.279,2.006-.918,1.838-1.73C183.016,817.765,182.477,818.17,181.317,818.376Z" transform="translate(-132.923 -598.777)" opacity="0.2"/>
    </g>
  </g>
</svg>
