<svg xmlns="http://www.w3.org/2000/svg" width="353.126" height="220.894" viewBox="0 0 353.126 220.894">
  <g id="undraw_Books_l33t" transform="translate(-74.296 -22.893)">
    <path id="Path_5685" data-name="Path 5685" d="M261.4,230.221a5.868,5.868,0,1,1,5.868-5.868A5.868,5.868,0,0,1,261.4,230.221Zm0-10.759a4.89,4.89,0,1,0,4.89,4.89A4.89,4.89,0,0,0,261.4,219.462Z" transform="translate(-181.234 -195.591)" fill="#3f3d56"/>
    <path id="Path_5686" data-name="Path 5686" d="M866.094,588.565H856.44v-9.654h9.654Zm-8.912-.743h8.169v-8.169h-8.169Z" transform="translate(-524.867 -401.703)" fill="#3f3d56"/>
    <path id="Path_5687" data-name="Path 5687" d="M332.94,562.767l-6.585-7.06,7.06-6.585,6.585,7.06Zm-5.535-7.023,5.572,5.974,5.974-5.572-5.572-5.974Z" transform="translate(-221.735 -384.668)" fill="#3f3d56"/>
    <path id="Path_5689" data-name="Path 5689" d="M583.33,634.8q-15.862-2.483-30.5-4.224l3.758-7.517c-1.3-.435-6.958,3.914-6.958,3.914l4.783-21.743c-6.523.87-9.567,23.048-9.567,23.048l-7.393-7.392,3.639,8.37a673.95,673.95,0,0,0-77.3-3.893L467,618.931c-1.3-.435-6.958,3.914-6.958,3.914L464.83,601.1c-6.523.87-9.567,23.048-9.567,23.048l-7.393-7.393,3.854,8.865a433.92,433.92,0,0,0-44.366,3.573c3.21-10,14.42-19.613,14.42-19.613-8.619,2.682-13.1,7.05-15.424,11.1a174.623,174.623,0,0,1,9.336-60.456s-17.394,39.137-14.785,65.229l.331,4.635C386.1,632.45,378.51,634.8,378.51,634.8Z" transform="translate(-251.561 -391.017)" fill="#3f3d56"/>
    <circle id="Ellipse_2096" data-name="Ellipse 2096" cx="67.977" cy="67.977" r="67.977" transform="translate(156.554 55.269)" fill="#3e4f87" opacity="0.3"/>
    <path id="Path_5690" data-name="Path 5690" d="M398.771,85.873,353.51,140.789,420.5,219.844l44.657-52.5Z" transform="translate(-202.156 -49.107)" fill="#3e4f87"/>
    <path id="Path_5691" data-name="Path 5691" d="M398.771,85.873,353.51,140.789,420.5,219.844l44.657-52.5Z" transform="translate(-202.156 -49.107)" opacity="0.1"/>
    <path id="Path_5692" data-name="Path 5692" d="M439.739,317.175h0a22.749,22.749,0,0,1,3.69-4.927L485,270.1s14.483-2.414,17.5,4.828l-53.106,43.45Z" transform="translate(-286.575 -224.889)" fill="#f2f2f2"/>
    <path id="Path_5693" data-name="Path 5693" d="M434.8,314.368l61.554,94.142s6.035,4.224,12.069,1.81l63.063-42.545L504.506,266.392l-60.347,47.071Z" transform="translate(-283.753 -222.987)" fill="#3e4f87"/>
    <rect id="Rectangle_1993" data-name="Rectangle 1993" width="47.564" height="0.978" transform="matrix(0.812, -0.584, 0.584, 0.812, 174.603, 85.85)" fill="#3f3d56"/>
    <rect id="Rectangle_1994" data-name="Rectangle 1994" width="0.978" height="91.889" transform="matrix(0.834, -0.552, 0.552, 0.834, 173.276, 96.779)" fill="#3f3d56"/>
    <rect id="Rectangle_1995" data-name="Rectangle 1995" width="50.935" height="0.978" transform="translate(230.122 175.177) rotate(-36.344)" fill="#3f3d56"/>
    <rect id="Rectangle_1996" data-name="Rectangle 1996" width="0.978" height="91.906" transform="translate(219.749 59.977) rotate(-34.838)" fill="#3f3d56"/>
    <rect id="Rectangle_1997" data-name="Rectangle 1997" width="64.815" height="0.603" transform="translate(156.582 88.443) rotate(-42.545)" fill="#3f3d56"/>
    <rect id="Rectangle_1998" data-name="Rectangle 1998" width="66.573" height="0.604" transform="translate(158.405 89.051) rotate(-41.439)" fill="#3f3d56"/>
    <rect id="Rectangle_1999" data-name="Rectangle 1999" width="67.447" height="0.604" transform="matrix(0.768, -0.64, 0.64, 0.768, 159.624, 89.055)" fill="#3f3d56"/>
    <path id="Path_5694" data-name="Path 5694" d="M1035.24,454.639a29.532,29.532,0,0,1-8.36-4.651l1.505,4.162H1001.5v.978h26.889l-1.505,4.163A29.519,29.519,0,0,1,1035.24,454.639Z" transform="translate(-607.818 -327.978)" fill="#fff"/>
  </g>
</svg>
