<svg xmlns="http://www.w3.org/2000/svg" xmlns:xlink="http://www.w3.org/1999/xlink" width="304" height="304" viewBox="0 0 304 304">
  <defs>
    <clipPath id="clip-path">
      <circle id="Ellipse_2092" data-name="Ellipse 2092" cx="152" cy="152" r="152" transform="translate(36 94)" fill="#fff"/>
    </clipPath>
    <linearGradient id="linear-gradient" x1="0.5" y1="1" x2="0.5" gradientUnits="objectBoundingBox">
      <stop offset="0" stop-color="gray" stop-opacity="0.251"/>
      <stop offset="0.54" stop-color="gray" stop-opacity="0.122"/>
      <stop offset="1" stop-color="gray" stop-opacity="0.102"/>
    </linearGradient>
  </defs>
  <g id="Mask_Group_76" data-name="Mask Group 76" transform="translate(-36 -94)" clip-path="url(#clip-path)">
    <g id="undraw_studying_s3l7" transform="translate(25 117)">
      <path id="Path_5556" data-name="Path 5556" d="M377.8,200.488c-.056.33-.112.661-.174.991a121.632,121.632,0,0,1-10.122,32.06q-.239.5-.487.991a91.628,91.628,0,0,1-11.406,17.589,36.5,36.5,0,0,1-8.193,7.688c-4.4,2.8-9.535,3.942-14.586,4.874-5.248.971-10.565,1.77-15.869,2.655q-2.82.46-5.605.965c-5.125.926-10.211,2-15.176,3.416a78.89,78.89,0,0,0-17.7,7.281q-.673.384-1.331.788c-.44.266-.885.537-1.313.814s-.859.552-1.283.832l-.655.443c-.215.142-.428.3-.64.437-.631.431-1.254.885-1.876,1.322l-.024.018q-.615.443-1.224.885c-2.3,1.7-4.546,3.484-6.786,5.272l-1.413,1.13q-1.095.867-2.189,1.732c-.428.339-.861.676-1.292,1.012-.313.245-.622.49-.941.732-1.6,1.23-3.213,2.434-4.862,3.585-.392.274-.791.549-1.18.817a62.224,62.224,0,0,1-10.485,5.777l-.047.021a41.591,41.591,0,0,1-5.57,1.921,33.347,33.347,0,0,1-3.281.711,29,29,0,0,1-8.9.153c-5.809-.823-11.252-3.54-17.047-4.449-11.954-1.856-23.564,4.13-34.813,8.83q-4.13,1.729-8.352,3.245-2.8,1.009-5.62,1.921a176.953,176.953,0,0,1-35.264,7.544,81.485,81.485,0,0,1-14.973.4,50.571,50.571,0,0,1-5.605-.729A32.354,32.354,0,0,1,84.583,315.9a39.662,39.662,0,0,1-8.836-13.745q-1.277-3.077-2.251-6.3A70.214,70.214,0,0,1,71.2,285.588c-.115-.785-.218-1.572-.3-2.36q-.23-2.027-.342-4.071a70.511,70.511,0,0,1,2.1-21.537c2.009-7.786,5.361-15.241,6.836-23.1.062-.33.118-.661.174-.991q.3-1.77.448-3.605c.743-9.612-2.133-19.02-4.4-28.443-.08-.33-.159-.661-.236-.991q-.369-1.567-.7-3.136c-2.1-9.966-2.679-20.631-.811-30.576.059-.33.127-.664.195-.991a49.458,49.458,0,0,1,6.892-17.238,59.738,59.738,0,0,1,12.981-13.733q3.585-2.862,7.414-5.355,2.753-1.788,5.605-3.384a93.428,93.428,0,0,1,50.237-11.8q1.378.071,2.75.189,1.44.124,2.871.3c11.161,1.289,22.021,4.484,32.816,7.98q5.426,1.77,10.833,3.54,2.407.785,4.812,1.549c7.862,2.481,15.855,4.72,23.921,6.408q2.806.59,5.605,1.077a132.489,132.489,0,0,0,19.646,2.024q3.835.094,7.671-.08,1.938-.088,3.88-.26c13.368-1.145,26.257-4.983,39.2-8.588,1.871-.522,3.744-1.041,5.605-1.543,2.461-.661,4.924-1.3,7.4-1.891,15.394-3.7,29.113-1.572,43.425,6.051,3.245,1.732,6.491,3.821,8.5,7.054s2.493,7.237,2.865,11.09c.525,5.482.885,11.04,1,16.622,0,.33,0,.661.021.991A176.851,176.851,0,0,1,377.8,200.488Z" transform="translate(-70.452 -96.797)" fill="#3e4f87" opacity="0.1"/>
      <path id="Path_5557" data-name="Path 5557" d="M284.073,233.819h-1.006v.991h1.139Zm-11.4,0a.067.067,0,0,0,0,.024l-.088.82v.148h8.733v-.059l.622-.932Zm-23.351,0v-32.06h10.031c-.106-.089-.215-.177-.327-.26l-.148-.112c-.062-.05-.124-.1-.189-.142s-.218-.156-.333-.233-.186-.127-.3-.189l-.068-.044h-8.671v-1.755l-.233.112-.248.139h-.018l-.053.032-.153.1c-.053.032-.106.065-.156.1-.153.1-.3.215-.457.33l-.148.118c-.1.077-.195.156-.3.236-.392.322-.779.658-1.18.968-.1.08-.2.156-.3.23a7.609,7.609,0,0,1-.667.437,3.167,3.167,0,0,1-.3.162l-.165.077-.15.065h0a6.267,6.267,0,0,1-1.1.348v31.341H228.661a.454.454,0,0,0,.03.1c.083.3.165.59.245.885H243.71v34.368h.23l.263.018.478.035.773.077.348.041.384.047h.056c.221.029.445.065.673.1l.145.024.325.053.466.083h0l1.118-.059h0l.153.032a.891.891,0,0,1,.189.038V234.81h23.251v-.148l.089-.82a.065.065,0,0,1,0-.024Zm34.754,0h-1.006v.991h1.139Zm-12.031,0-.1.991h9.715l.661-.991Zm-22.717,0v-32.06h10.031c-.106-.089-.215-.177-.327-.26l-.148-.112c-.062-.05-.124-.1-.189-.142s-.218-.156-.333-.233-.186-.127-.3-.189l-.068-.044h-8.677v-1.755l-.233.112-.248.139h-.018l-.053.032-.153.1c-.053.032-.106.065-.156.1-.153.1-.3.215-.457.33l-.148.118c-.1.077-.195.156-.3.236-.392.322-.779.658-1.18.968-.1.08-.2.156-.3.23a7.609,7.609,0,0,1-.667.437,3.167,3.167,0,0,1-.3.162l-.165.077-.15.065h0a6.267,6.267,0,0,1-1.1.348v31.341H228.661a.454.454,0,0,0,.03.1c.083.3.168.59.248.885H243.71v34.365l.23.015.263.018.478.035.773.077.348.041.384.047h.056c.221.029.445.065.673.1l.145.024.325.053.466.083h0l1.118-.059h0l.153.032a.891.891,0,0,1,.189.038V234.81h22.631l.106-.991Zm76.016-66.764h63.2c0-.33,0-.661-.021-.991H325.341V127.138c-1.876.5-3.75,1.021-5.605,1.543v37.383H250.994l-.174-.189.263-.3h0l25.567-28.06q-3.835.177-7.671.08l-19.66,21.566V135.584q-2.815-.487-5.605-1.077V158.08l-28.744-31.529c-3.608-1.18-7.216-2.381-10.833-3.54l39.07,42.864-.174.189H171.32V115.024q-1.434-.162-2.871-.3-1.372-.121-2.75-.189v51.523H115.463v-39.71q-2.859,1.593-5.605,3.384v36.327H82.535c-.068.327-.136.661-.195.991h27.493v33.713H83.862c.077.33.156.661.236.991h25.747v32.06h-21.8c-.056.33-.112.661-.174.991h21.974v89.644a50.571,50.571,0,0,0,5.605.729V234.81H165.7v82.424q2.826-.918,5.62-1.921v-80.5H243.7v72.016a41.6,41.6,0,0,0,5.57-1.921l.047-.021V234.81h70.4v33.772q2.8-.5,5.605-.965V234.81H375.38q.248-.5.487-.991H325.341v-32.06h60.666c.062-.33.118-.661.174-.991h-60.84Zm-209.875,0H165.7v33.713H115.463Zm0,66.764v-32.06H165.7v32.06Zm55.857-66.764H243.7v33.713H171.32Zm0,66.764v-32.06H243.7v32.06Zm148.4,0h-70.4v-32.06h70.4Zm0-33.043h-70.4V167.957l.988-.9h69.411Zm-47.048,33.043a.064.064,0,0,0,0,.024l-.089.82v.148h8.733v-.059l.622-.932Zm11.4,0h-1.006v.991h1.139Zm-34.754,0v-32.06h10.031c-.106-.089-.215-.177-.327-.26l-.147-.112c-.062-.05-.124-.1-.189-.142s-.218-.156-.333-.233-.186-.127-.3-.189l-.068-.044h-8.674v-1.755l-.233.112-.248.139h-.018l-.053.032-.153.1c-.053.032-.106.065-.156.1-.153.1-.3.215-.457.33l-.148.118c-.1.077-.195.156-.3.236-.392.322-.779.658-1.18.968-.1.08-.2.156-.3.23a7.609,7.609,0,0,1-.667.437,3.167,3.167,0,0,1-.3.162l-.165.077-.15.065h0a6.267,6.267,0,0,1-1.1.348v31.341H228.661a.454.454,0,0,0,.03.1c.083.3.165.59.245.885H243.71v34.368h.23l.263.018.478.035.773.077.348.041.384.047h.056c.221.029.445.065.673.1l.145.024.325.053.466.083h0l1.118-.059h0l.153.032a.891.891,0,0,1,.189.038V234.81h23.251v-.148l.089-.82a.065.065,0,0,1,0-.024Z" transform="translate(-78.833 -97.076)" fill="#3e4f87" opacity="0.1"/>
      <path id="Path_5558" data-name="Path 5558" d="M272.039,208.826h.448a1.074,1.074,0,0,1-.534-.864h0c0-.684.838-1.242,1.862-1.242H286.84c1.024,0,1.862.558,1.862,1.242h0c0,.682-.838,1.242-1.862,1.242h-.434a1.077,1.077,0,0,1,.531.864c0,.59-.608,1.074-1.422,1.207h3.75c1.021,0,1.859.558,1.859,1.242s-.838,1.239-1.859,1.239h-13.04c-1.021,0-1.859-.558-1.859-1.239,0-.59.608-1.074,1.422-1.207h-3.75c-1.021,0-1.859-.558-1.859-1.242S271.012,208.826,272.039,208.826Z" transform="translate(-211.255 -162.061)" fill="#3e4f87" opacity="0.1"/>
      <path id="Path_5559" data-name="Path 5559" d="M750.559,248.9H751a1.077,1.077,0,0,1-.534-.867h0c0-.682.838-1.239,1.862-1.239h13.025c1.024,0,1.862.558,1.862,1.239h0c0,.684-.838,1.242-1.862,1.242h-.434a1.08,1.08,0,0,1,.531.867c0,.59-.608,1.071-1.422,1.2h3.75c1.021,0,1.859.561,1.859,1.242s-.838,1.242-1.859,1.242H754.751c-1.021,0-1.859-.558-1.859-1.242,0-.59.608-1.074,1.422-1.2h-3.756c-1.021,0-1.859-.561-1.859-1.242S749.544,248.9,750.559,248.9Z" transform="translate(-548.6 -190.309)" fill="#3e4f87" opacity="0.1"/>
      <path id="Path_5560" data-name="Path 5560" d="M204.309,420.359h.437a1.08,1.08,0,0,1-.531-.867h0c0-.682.835-1.242,1.859-1.242H219.1c1.024,0,1.862.561,1.862,1.242h0c0,.684-.838,1.242-1.862,1.242h-.434a1.08,1.08,0,0,1,.531.867c0,.59-.608,1.071-1.422,1.2h3.75c1.024,0,1.859.558,1.859,1.242s-.835,1.242-1.859,1.242H208.5c-1.021,0-1.859-.561-1.859-1.242,0-.59.611-1.074,1.422-1.207h-3.75c-1.021,0-1.859-.558-1.859-1.239S203.288,420.359,204.309,420.359Z" transform="translate(-163.507 -311.184)" fill="#3e4f87" opacity="0.1"/>
      <path id="Path_5561" data-name="Path 5561" d="M669.187,713.44q-1.095.867-2.189,1.732c-.428.339-.862.676-1.292,1.012-.313.245-.622.49-.941.732-1.6,1.23-3.213,2.434-4.862,3.584-.392.274-.791.549-1.18.817a62.217,62.217,0,0,1-10.485,5.777l-.047.021V713.44Z" transform="translate(-477.743 -519.286)" fill="#65617d"/>
      <path id="Path_5562" data-name="Path 5562" d="M508.681,359.489l.33-10.193c-.2-.153-.4-.3-.59-.437a54.334,54.334,0,0,0-.519-9.09c-1.333-10.193-9.993-10.414-12.435-8.311a5.9,5.9,0,0,1-1.053.726c.221-1.454.5-2.912.693-4.352,1.068-7.765-.59-16.5-6.615-21.519-2.522-2.1-5.605-3.387-8.376-5.142-4.962-3.13-8.883-7.753-13.9-10.8s-12.067-4.189-16.445-.271c-1.7,1.516-2.791,3.62-4.532,5.083-3.245,2.726-8.3,2.906-11.137,5.951h0c-.142.153-.277.31-.407.475-2.36,3.027-1.714,7.32-.962,11.075.906,4.52.531,8.143,4.408,9.441.015.18.027.36.047.537a19.15,19.15,0,0,0,8.426,13.784l-.628.224c-1.676.59-3.183,1.162-4.148,1.555-3.54,1.443-10.993,3.322-10.993,3.322s-.177,2.124-.145,5.257c-2.484,2.7-6.629,7.443-7.848,10.255-1.77,4.1-11.771,15.846-14.436,17.619s-5.552,3.877-5.552,3.877-4.219,2.328-6.216,2.549a33.484,33.484,0,0,1-5.665-.667s-17.1-20.947-15.987-4.874,14.766,16.619,14.766,16.619l13.769-.221s7.441,1,10.771-1.77c2.844-2.36,17.584-15.309,22.319-21.183.109.121.218.239.333.354,0,0,1.885-2.437,2.109,0s-1.224,3.54-.445,4.425,3.11,3.989,3.219,5.207-3.107,6.2,2.331,9.972c.086.059.177.115.277.171.971,2.21,4.057,4.372,4.057,4.372l16.654-.221,31.423,2.437s.935-.823,2.2-2.168c1.69,1.552,4.036,2.882,6.679,2.065,0,0,3.776-4.54,3.888-7.532,0,0-2.443-6.316-3.54-8.2s.779-5.983.779-5.983,1.331-3.989,2.109-3.989.221-2.655.221-2.655a3.227,3.227,0,0,1-.333-2.992A28.634,28.634,0,0,0,508.681,359.489Z" transform="translate(-284.407 -219.077)" fill="url(#linear-gradient)"/>
      <path id="Path_5563" data-name="Path 5563" d="M685.929,454.772l-1.18,1.381h0l-4.768,5.552-6.228.378-9.969.614s-13.441-16.2-10.916-19.722a6.454,6.454,0,0,0,.885-4.535c-.024-.218-.056-.437-.094-.652a18.853,18.853,0,0,0-1.57-4.838l.33-.15.212-.1,11.754-5.364,2.909-1.328a7.856,7.856,0,0,0,.8,2.3c.056.112.118.224.183.33,4.009,6.638,16.867,2.44,16.867,2.44Z" transform="translate(-480.492 -316.655)" fill="#ee8e9e"/>
      <path id="Path_5564" data-name="Path 5564" d="M776.8,452.931a19.381,19.381,0,0,1-.744,5.753l-16.636,2.534-.622-4.319-2.463-17.055,2.313-2.313a6.175,6.175,0,0,0,5.29-1.322c2.422-2.095,11.016-1.873,12.338,8.261A56.093,56.093,0,0,1,776.8,452.931Z" transform="translate(-553.979 -323.101)" fill="#ee8e9e"/>
      <path id="Path_5565" data-name="Path 5565" d="M789.967,613.572s3.744-4.517,3.856-7.491l-3.747-6.281-3.3-3.54L780.6,608.173S784.677,615.224,789.967,613.572Z" transform="translate(-571.088 -436.677)" fill="#dfe5ee"/>
      <path id="Path_5566" data-name="Path 5566" d="M789.967,613.572s3.744-4.517,3.856-7.491l-3.747-6.281-3.3-3.54L780.6,608.173S784.677,615.224,789.967,613.572Z" transform="translate(-571.088 -436.677)" opacity="0.1"/>
      <path id="Path_5567" data-name="Path 5567" d="M259.506,697.727c-.313.245-.622.49-.941.732-1.6,1.23-3.213,2.434-4.862,3.585-.392.274-.791.549-1.18.817H158.41l-27.845-1-22.392-.189-5.605-.3L74.6,699.9a70.22,70.22,0,0,1-2.3-10.285c-.115-.785-.218-1.573-.3-2.36l30.556,1.693,5.605.316,50.237,2.8,5.62.313,72.382,4.042,5.57.313h.047Z" transform="translate(-71.543 -500.829)" fill="#d48a9b"/>
      <path id="Path_5568" data-name="Path 5568" d="M296.434,630.894a78.885,78.885,0,0,0-17.7,7.281c-.446.257-.885.519-1.331.788s-.885.537-1.313.814-.859.552-1.283.832l-.655.443-.64.437c-.631.434-1.254.885-1.876,1.322l-.024.018q-.615.442-1.224.885c-2.3,1.7-4.546,3.484-6.786,5.272q-.708.566-1.419,1.13L260,651.846c-.428.339-.861.676-1.292,1.012-.313.245-.622.49-.941.732l-16.521-.788H241.2l-5.57-.26-72.414-3.431-5.62-.268-50.237-2.387-5.605-.268-30.273-1.425c-.115-.785-.218-1.572-.3-2.36q-.23-2.027-.342-4.071l30.907-10.916,5.605-1.986,5.092-1.8,9.279.484,21.445,1.1h0l14.433.758,5.62.3,3.59.189h0l.859.047h0l30.217,1.578h0l.319.021h0l13.483.7h.242l1.348.068h0l4.6.242,5.747.295h0l1.894.1h0l.357.021,2.679.139h0l.764.038h0l2.558.136h0l1.018.056h.245l2.393.127,3.706.195h.018l1.151.059h.124l.687.038,1.688.089h0l1.475.077h.015l1.655.086h.027l1.254.068h0l.962.05,3.413.18h0l.614.032h.212l.3.018h0l1,.053h0l.448.024h0l3.481.18h.319l5.139-.044h.035l19.54-.159h1.932l6.29-.05h.938Z" transform="translate(-70.726 -455.972)" fill="#efc6cd"/>
      <path id="Path_5569" data-name="Path 5569" d="M387.361,641.724l1.817,9.668,49.411-.743s3.717,1.074,3.635-1.9c0,0,7.52-7.107,45.611,1.157L473.21,638.42l-39.976,2.148-46.354-1.239Z" transform="translate(-293.526 -466.398)" fill="#3e4f87"/>
      <path id="Path_5570" data-name="Path 5570" d="M391.59,640.506,393.325,651s42.484-1.239,49.163-.083l-5.048-9.585S411.752,638.936,391.59,640.506Z" transform="translate(-296.846 -467.493)" fill="#fff"/>
      <path id="Path_5571" data-name="Path 5571" d="M391.59,640.506,393.325,651s42.484-1.239,49.163-.083l-5.048-9.585S411.752,638.936,391.59,640.506Z" transform="translate(-296.846 -467.493)" opacity="0.1"/>
      <path id="Path_5572" data-name="Path 5572" d="M393.74,640.465l1.711,9.759s41.944-1.151,48.552-.077l-4.977-8.913S413.648,639,393.74,640.465Z" transform="translate(-298.362 -467.491)" fill="#fff"/>
      <path id="Path_5573" data-name="Path 5573" d="M396.35,641.549l1.667,9.128s41.023-1.077,47.5-.071l-4.868-8.34S415.825,640.171,396.35,641.549Z" transform="translate(-300.202 -468.273)" opacity="0.1"/>
      <path id="Path_5574" data-name="Path 5574" d="M397.47,640.434l1.676,9.146s41.023-1.077,47.5-.071l-4.88-8.349S416.945,639.068,397.47,640.434Z" transform="translate(-300.991 -467.492)" fill="#fff"/>
      <path id="Path_5575" data-name="Path 5575" d="M284.983,557.41s2.148,2.806-.988,7.045-5.726,7.815-4.679,10.459c0,0,4.72-7.871,8.585-7.966S289.222,562.142,284.983,557.41Z" transform="translate(-217.529 -409.288)" fill="#3e4f87"/>
      <path id="Path_5576" data-name="Path 5576" d="M285.272,557.41a3.411,3.411,0,0,1,.44.885c3.759,4.425,5.762,8.556,2.148,8.644-3.366.094-7.4,6.113-8.37,7.635q.05.171.115.345s4.72-7.871,8.585-7.966S289.512,562.142,285.272,557.41Z" transform="translate(-217.819 -409.288)" opacity="0.1"/>
      <path id="Path_5577" data-name="Path 5577" d="M311.436,568.026c0,.985-.112,1.788-.248,1.788s-.248-.8-.248-1.788.139-.525.274-.525S311.436,567.038,311.436,568.026Z" transform="translate(-239.99 -416.326)" fill="#ffd037"/>
      <path id="Path_5578" data-name="Path 5578" d="M313.217,571.9c-.867.475-1.623.761-1.688.64s.59-.59,1.452-1.074.525-.13.59,0S314.084,571.432,313.217,571.9Z" transform="translate(-240.402 -419.026)" fill="#ffd037"/>
      <path id="Path_5579" data-name="Path 5579" d="M249.147,557.41s-2.148,2.806.991,7.045,5.723,7.815,4.679,10.459c0,0-4.735-7.871-8.588-7.966S244.908,562.142,249.147,557.41Z" transform="translate(-193.031 -409.288)" fill="#3e4f87"/>
      <path id="Path_5580" data-name="Path 5580" d="M249.147,557.41a3.54,3.54,0,0,0-.44.885c-3.759,4.425-5.762,8.556-2.148,8.644,3.366.094,7.405,6.113,8.373,7.635a3.558,3.558,0,0,1-.115.345s-4.735-7.871-8.588-7.966S244.908,562.142,249.147,557.41Z" transform="translate(-193.031 -409.288)" opacity="0.1"/>
      <path id="Path_5581" data-name="Path 5581" d="M247.13,568.026c0,.985.112,1.788.248,1.788s.248-.8.248-1.788-.139-.525-.274-.525S247.13,567.038,247.13,568.026Z" transform="translate(-195.006 -416.326)" fill="#ffd037"/>
      <path id="Path_5582" data-name="Path 5582" d="M241.233,571.9c.867.475,1.626.761,1.691.64s-.59-.59-1.452-1.074-.525-.13-.59,0S240.365,571.432,241.233,571.9Z" transform="translate(-190.477 -419.026)" fill="#ffd037"/>
      <path id="Path_5583" data-name="Path 5583" d="M263.8,600.78l-.106.885-.15,1.236-.062.516-.15,1.239-.065.516-.153,1.239L261.4,620.491c-.153,1.257-2.207,2.236-4.685,2.236H247.8c-2.478,0-4.529-.979-4.682-2.236l-1.72-14.079-.15-1.239-.062-.516-.153-1.239-.062-.516-.15-1.236-.109-.885c-.086-.711,1.024-1.31,2.428-1.31h18.25C262.789,599.47,263.9,600.069,263.8,600.78Z" transform="translate(-190.476 -438.94)" fill="#65617d"/>
      <path id="Path_5584" data-name="Path 5584" d="M193.538,551.59l-.15,1.239H170.8l-.15-1.239Z" transform="translate(-120.308 -388.873)" fill="#9d9cb5"/>
      <path id="Path_5585" data-name="Path 5585" d="M193.833,557.54l-.15,1.239H171.523l-.153-1.239Z" transform="translate(-120.815 -393.068)" fill="#9d9cb5"/>
      <path id="Path_5586" data-name="Path 5586" d="M194.133,563.49l-.15,1.236H172.25l-.15-1.236Z" transform="translate(-121.33 -397.263)" fill="#9d9cb5"/>
      <path id="Path_5587" data-name="Path 5587" d="M398.113,595.215s-5.729-5.508-5.508,1.652S398.113,595.215,398.113,595.215Z" transform="translate(-297.557 -434.514)" fill="#ee8e9e"/>
      <path id="Path_5588" data-name="Path 5588" d="M436.025,505.411a8.358,8.358,0,0,1-1.705,2.629c-4.968,5.983-19.1,18.418-21.873,20.726-3.3,2.756-10.686,1.77-10.686,1.77l-13.66.221s-13.551-.552-14.654-16.522,15.864,4.847,15.864,4.847a33.125,33.125,0,0,0,5.62.661c1.983-.218,6.169-2.531,6.169-2.531s2.865-2.095,5.508-3.856,12.559-13.441,14.324-17.519c1.118-2.587,4.72-6.818,7.207-9.562,1.428-1.578,2.487-2.655,2.487-2.655S436.795,501.994,436.025,505.411Z" transform="translate(-284.019 -357.268)" fill="#ee8e9e"/>
      <path id="Path_5589" data-name="Path 5589" d="M566.836,505.382a8.359,8.359,0,0,1-1.705,2.629c-5.016-5.107-6.063-15.3-6.181-21.776,1.428-1.578,2.487-2.655,2.487-2.655S567.606,501.966,566.836,505.382Z" transform="translate(-414.831 -357.24)" opacity="0.1"/>
      <path id="Path_5590" data-name="Path 5590" d="M684.746,472.142h0l-4.765,5.552-6.228.378-9.969.614s-13.441-16.2-10.916-19.723a6.454,6.454,0,0,0,.885-4.535c-.024-.218-.056-.437-.094-.652a18.853,18.853,0,0,0-1.57-4.838l.33-.15.212-.1a21.154,21.154,0,0,1,1.08,4.517c.032.209.062.428.091.652.1.8.2,1.682.3,2.655.767,8.916,6.375,12.27,8.907,13.338a25.689,25.689,0,0,1,2.384,1.154,12.718,12.718,0,0,0,8,1.446c6.249-.82,11.344-5.361,11.344-5.361l.027,4.47Z" transform="translate(-480.492 -332.644)" opacity="0.1"/>
      <path id="Path_5591" data-name="Path 5591" d="M620.649,503.445s-40.982-.112-46.384-3.856-2.2-8.7-2.313-9.916-2.422-4.3-3.192-5.181.661-1.983.44-4.4-2.092,0-2.092,0c-7.715-7.824-6.063-27.653-6.063-27.653s7.376-1.87,10.916-3.307c.959-.389,2.452-.944,4.13-1.543l.623-.224c4.328-1.549,9.473-3.3,9.473-3.3s.988-.7,1.983,1.393a18.386,18.386,0,0,1,1.277,4.986c.032.21.062.428.091.652.1.8.2,1.682.3,2.655.767,8.916,6.375,12.27,8.907,13.338a25.68,25.68,0,0,1,2.384,1.154,12.719,12.719,0,0,0,8,1.446c6.249-.82,11.344-5.361,11.344-5.361l.027,4.47.077,13.43Z" transform="translate(-416.203 -329.302)" fill="#dfe5ee"/>
      <path id="Path_5592" data-name="Path 5592" d="M650.8,582.981l-.661,4.186s-16.306,4.074-22.693,5.287-20.162-.33-21.153,2.313,4.186,6.281,4.186,6.281L627,600.828l31.178,2.425s11.9-10.468,8.042-17.74S650.8,582.981,650.8,582.981Z" transform="translate(-448.114 -426.245)" fill="#ee8e9e"/>
      <path id="Path_5593" data-name="Path 5593" d="M628.644,474.58s-7.494,6.169-6.06,9.146S628.644,474.58,628.644,474.58Z" transform="translate(-459.563 -350.895)" opacity="0.1"/>
      <path id="Path_5594" data-name="Path 5594" d="M595.036,512.29s-7.6,13.111-7.16,14.1,2.534,4.517,2.422,1.873S595.036,512.29,595.036,512.29Z" transform="translate(-435.209 -377.48)" opacity="0.1"/>
      <path id="Path_5595" data-name="Path 5595" d="M613.371,520.14s-1.77,8.151-3.526,11.568S613.371,520.14,613.371,520.14Z" transform="translate(-450.459 -383.014)" opacity="0.1"/>
      <path id="Path_5596" data-name="Path 5596" d="M640.253,428.666a19.059,19.059,0,0,1-14.486,9.8h-.035a19.026,19.026,0,0,1-13.412-3.511c4.425-1.6,10.1-3.523,10.1-3.523s.988-.7,1.983,1.393l14.875-6.786a7.889,7.889,0,0,0,.979,2.626Z" transform="translate(-452.455 -316.676)" opacity="0.1"/>
      <path id="Path_5597" data-name="Path 5597" d="M623.8,356.247a18.974,18.974,0,0,1-2.508,9.459,19.2,19.2,0,0,1-2.841,3.782A18.979,18.979,0,0,1,606.9,375.2h-.038a18.611,18.611,0,0,1-2.118.121A19.059,19.059,0,0,1,585.8,358.409a18.505,18.505,0,0,1-.121-2.15,19.059,19.059,0,1,1,38.117,0Z" transform="translate(-433.675 -254.046)" fill="#ee8e9e"/>
      <path id="Path_5598" data-name="Path 5598" d="M753.58,501.768l1.77-2.655s9.695-11.568,19.177-4.186l-.33,10.137a26.878,26.878,0,0,1-1.1,4.72,3.225,3.225,0,0,0,.33,2.977s.552,2.655-.218,2.655-2.095,3.965-2.095,3.965-1.873,4.077-.77,5.951,3.526,8.152,3.526,8.152-3.856-2.313-4.959-6.169c0,0-9.364-7.272-16.636-2.655Z" transform="translate(-551.116 -363.503)" opacity="0.1"/>
      <path id="Path_5599" data-name="Path 5599" d="M782.682,490.543a19.386,19.386,0,0,1-.743,5.753L765.3,498.831l-.622-4.319C766.857,492.24,774.776,485.017,782.682,490.543Z" transform="translate(-559.865 -360.713)" opacity="0.1"/>
      <path id="Path_5600" data-name="Path 5600" d="M753.58,499.768l1.77-2.655s9.695-11.568,19.177-4.186l-.33,10.137a26.878,26.878,0,0,1-1.1,4.72,3.225,3.225,0,0,0,.33,2.977s.552,2.655-.218,2.655-2.095,3.965-2.095,3.965-1.873,4.077-.77,5.951,3.526,8.151,3.526,8.151-3.856-2.313-4.959-6.169c0,0-9.364-7.272-16.636-2.655Z" transform="translate(-551.116 -362.093)" fill="#dfe5ee"/>
      <path id="Path_5601" data-name="Path 5601" d="M773.338,496.61s-15.973,9.807-15.2,18.407C758.135,515.017,767.06,499.253,773.338,496.61Z" transform="translate(-555.232 -366.426)" opacity="0.1"/>
      <path id="Path_5602" data-name="Path 5602" d="M637.848,393.523l.077,13.43c-3.021.136-5.868-.257-8.119-2.213a9.743,9.743,0,0,1-2.95-5.281,18.711,18.711,0,0,1-.384-4.995.275.275,0,0,1,0-.05c.186-3.708,1.039-7.417.59-11.1s-2.682-7.573-6.328-8.349a3.821,3.821,0,0,1-2.042-.741,2.961,2.961,0,0,1-.478-2.325l.106-1.378c.027-.354.038-.705.038-1.056a13.521,13.521,0,0,0-10.916-13.258l-.118-.021a7.455,7.455,0,0,0-3.121-.174c-1.953.451-3.216,2.345-5.016,3.245-3.452,1.723-9.208-.162-12.822-.755-.236-.038-.46-.083-.676-.133a18.485,18.485,0,0,1-.121-2.151,19.059,19.059,0,1,1,35.609,9.458c.056.112.118.224.183.33,4.009,6.638,16.867,2.44,16.867,2.44L639,392.134Z" transform="translate(-433.597 -254.022)" opacity="0.1"/>
      <path id="Path_5603" data-name="Path 5603" d="M588.1,326.318c1.788-.9,3.051-2.8,5.015-3.245a7.525,7.525,0,0,1,3.124.171l.118.024a13.533,13.533,0,0,1,10.866,14.318l-.106,1.378a2.918,2.918,0,0,0,.481,2.322,3.729,3.729,0,0,0,2.039.738c3.646.779,5.88,4.647,6.328,8.352s-.419,7.426-.59,11.149.513,7.833,3.328,10.279c4.425,3.835,11.152,1.652,17.008,1.3-2.59,0-4.532-2.673-4.673-5.257s1.009-5.045,2.109-7.376,2.2-4.838,1.959-7.417c-.336-3.54-3.127-6.376-4.2-9.783-1.245-3.965-.044-8.222.519-12.344,1.059-7.718-.59-16.406-6.564-21.4-2.5-2.086-5.561-3.369-8.311-5.116-4.927-3.124-8.812-7.706-13.792-10.745s-11.972-4.166-16.318-.271c-1.682,1.508-2.767,3.6-4.5,5.054-3.378,2.847-8.747,2.9-11.456,6.393-2.331,3.006-1.7,7.275-.953,11.007.994,4.977.434,8.851,5.753,9.736C578.9,326.159,584.649,328.044,588.1,326.318Z" transform="translate(-421.819 -221.412)" fill="#603556"/>
      <path id="Path_5604" data-name="Path 5604" d="M631.841,402.831c-4.263.522-8.488.791-11.592-1.9-2.815-2.446-3.508-6.553-3.328-10.279s1.041-7.449.59-11.152-2.682-7.57-6.328-8.349a3.784,3.784,0,0,1-2.039-.738,2.941,2.941,0,0,1-.481-2.325l.106-1.378A13.53,13.53,0,0,0,597.9,352.4l-.118-.024a7.526,7.526,0,0,0-3.124-.171c-1.953.451-3.216,2.36-5.015,3.245-3.455,1.726-9.2-.159-12.825-.752-5.31-.87-4.756-4.75-5.753-9.736-.558-2.785-1.05-5.871-.3-8.509a4.626,4.626,0,0,0-.407.475c-2.331,3.006-1.7,7.275-.953,11.007.994,4.977.434,8.851,5.753,9.736,3.617.59,9.37,2.478,12.825.752,1.788-.9,3.051-2.8,5.015-3.245a7.525,7.525,0,0,1,3.124.171l.118.024a13.533,13.533,0,0,1,10.866,14.318l-.106,1.378a2.918,2.918,0,0,0,.481,2.322,3.73,3.73,0,0,0,2.039.738c3.646.779,5.88,4.647,6.328,8.352s-.416,7.426-.59,11.149.513,7.833,3.328,10.279c4.425,3.835,11.152,1.652,17.008,1.3A4.487,4.487,0,0,1,631.841,402.831Z" transform="translate(-421.727 -253.517)" opacity="0.1"/>
      <path id="Path_5605" data-name="Path 5605" d="M370.378,578.333l18.188-6.786a1.732,1.732,0,0,1,2.227,1.015h0a1.732,1.732,0,0,1-1.015,2.227l-18.188,6.786-3.9-.389Z" transform="translate(-279.997 -419.177)" fill="#5c5c8e"/>
      <path id="Path_5606" data-name="Path 5606" d="M390.217,572.658h0a1.732,1.732,0,0,1-1.018,2.227L371,581.695l-2.927-.3-.422.448,3.9.389,18.188-6.786a1.732,1.732,0,0,0,1.015-2.227h0a1.732,1.732,0,0,0-.708-.864A2.016,2.016,0,0,1,390.217,572.658Z" transform="translate(-279.969 -419.828)" fill="#fff" opacity="0.1"/>
      <path id="Path_5607" data-name="Path 5607" d="M299.948,539.52l1.21,3.242-3.2-.322-.7-.071.956-1.015Z" transform="translate(-209.564 -380.364)" fill="#efc8c4"/>
      <path id="Path_5608" data-name="Path 5608" d="M368.667,601a.772.772,0,0,1,.189.2.3.3,0,0,1,0,.316.626.626,0,0,1-.174.127.59.59,0,0,0-.26.437l-.7-.068Z" transform="translate(-280.018 -440.018)" fill="#727a9c"/>
      <path id="Path_5609" data-name="Path 5609" d="M569.566,639.741s15.754-3.307,42.189.885l-10.355-7.6-18.84-3.856-13.329,3.54Z" transform="translate(-422.078 -459.877)" fill="#fff"/>
      <path id="Path_5610" data-name="Path 5610" d="M569.566,639.741s15.754-3.307,42.189.885l-10.355-7.6-18.84-3.856-13.329,3.54Z" transform="translate(-422.078 -459.877)" opacity="0.1"/>
      <path id="Path_5611" data-name="Path 5611" d="M552.1,645.483s7.933-21.46,48.679.068l-14.624-9.411s-35.034-9.68-39.082,1.475Z" transform="translate(-406.456 -462.044)" fill="#fff"/>
      <path id="Path_5612" data-name="Path 5612" d="M552.048,641.744s7.933-22.944,48.679.413L586.1,631.949s-35.046-11.577-39.1.54Z" transform="translate(-406.406 -458.319)" opacity="0.1"/>
      <path id="Path_5613" data-name="Path 5613" d="M552.1,641.543s7.933-23.283,48.679.074l-14.624-10.208s-35.034-11.246-39.082.885Z" transform="translate(-406.456 -458.11)" fill="#fff"/>
      <path id="Path_5614" data-name="Path 5614" d="M552.069,639.288s7.933-25.877,48.679.4L586.112,628.2s-35.034-11.8-39.082,1.817Z" transform="translate(-406.427 -455.849)" opacity="0.1"/>
      <path id="Path_5615" data-name="Path 5615" d="M552.069,638.484s7.933-26.192,48.679.083l-14.636-11.485s-35.034-11.8-39.082,1.817Z" transform="translate(-406.427 -455.06)" fill="#fff"/>
      <path id="Path_5616" data-name="Path 5616" d="M967.336,668.71s-9.78,10.476-.977,15.566a2.442,2.442,0,0,0,2.794.661s-.555-.493.558-1.443a6.6,6.6,0,0,0,1.047-1.151,3.246,3.246,0,0,0,.608-1.965h0s1.28-4.157-2.788-9.553c0,0-.369-1.806-.682-2l-.743,2.517a4.334,4.334,0,0,1,2.57,1.9s-2.461-1.932-2.7-1.528c-.047.083-.333,1.354-.333,1.354s3.245.838,4.26,3.068c0,0-2.623-2.694-4.372-2.587l-.319,1.941s3.473.72,4.72,3.216c0,0-2.838-2.723-4.768-2.785l-.056,1.95s3.372.767,4.4,2.85c0,0-3.6-2.812-4.384-2.4a9.64,9.64,0,0,0,.3,2.266s2.407.59,2.9,1.871c0,0-2.6-1.626-2.826-1.378a10.149,10.149,0,0,0,1.673,3.307,7.34,7.34,0,0,1-2.03-3.18,4.048,4.048,0,0,0-.49,2.263s-.965-1.068.327-2.826a9.324,9.324,0,0,1-.354-2.118,8.811,8.811,0,0,0-1.909,2.95s-.3-1.747,1.906-3.455v-1.965a12.526,12.526,0,0,0-2.555,3.157s-.029-1.829,2.6-3.649l.295-1.909a14.934,14.934,0,0,0-2.729,2.779s.336-1.705,2.832-3.322l.345-1.251s-1.4,1.151-1.77,1.516-.5.3-.5.3a6.2,6.2,0,0,1,2.419-2.343A14.1,14.1,0,0,0,967.336,668.71Z" transform="translate(-699.453 -487.752)" fill="#3e4f87" opacity="0.1"/>
      <path id="Path_5617" data-name="Path 5617" d="M1106.193,90.91s-13.067,5.9-6.907,13.981a2.445,2.445,0,0,0,2.322,1.69s-.321-.67,1.071-1.118a6.463,6.463,0,0,0,1.41-.658,3.247,3.247,0,0,0,1.319-1.578h0s2.785-3.34,1.112-9.886c0,0,.357-1.809.145-2.112l-1.658,2.036a4.33,4.33,0,0,1,1.64,2.741s-1.522-2.732-1.9-2.449c-.077.056-.829,1.118-.829,1.118s2.655,2.024,2.747,4.476c0,0-1.381-3.5-3.039-4.077l-1.042,1.67s2.927,2,3.121,4.788c0,0-1.57-3.605-3.325-4.408l-.806,1.77s2.818,2.009,2.951,4.328c0,0-2.234-3.983-3.119-3.906a9.169,9.169,0,0,0-.59,2.2s1.988,1.475,1.953,2.844c0,0-1.77-2.5-2.065-2.36a10.1,10.1,0,0,0,.269,3.7,7.323,7.323,0,0,1-.646-3.717,4.038,4.038,0,0,0-1.325,1.9s-.478-1.36,1.392-2.484a9.252,9.252,0,0,1,.49-2.089,8.807,8.807,0,0,0-2.894,1.974s.4-1.726,3.092-2.452l.767-1.806a12.54,12.54,0,0,0-3.576,1.924s.679-1.7,3.806-2.36l1.006-1.646a15.067,15.067,0,0,0-3.59,1.511s.971-1.44,3.9-1.971l.8-1.021s-1.741.519-2.227.714-.59.08-.59.08a6.2,6.2,0,0,1,3.154-1.227A15.491,15.491,0,0,0,1106.193,90.91Z" transform="translate(-794.59 -80.418)" fill="#3e4f87" opacity="0.1"/>
      <path id="Path_5618" data-name="Path 5618" d="M675.913,103.29s-19.631,5.605-10.087,13.949a3.786,3.786,0,0,0,3.564,1.77s-.507-.684,1.593-1.1a12.479,12.479,0,0,0,2.118-.625,3.78,3.78,0,0,0,1.953-1.561h0s4.13-3.3,1.419-9.966c0,0,.493-1.817.162-2.13l-2.455,2.012s2.36,1.213,2.558,2.815c0,0-2.381-2.8-2.95-2.525-.115.056-1.227,1.106-1.227,1.106s4.095,2.118,4.281,4.6c0,0-2.183-3.573-4.72-4.2l-1.534,1.658s4.484,2.1,4.853,4.924c0,0-2.472-3.685-5.151-4.543l-1.18,1.77s4.319,2.106,4.6,4.455c0,0-3.49-4.086-4.83-4.036a6.915,6.915,0,0,0-.841,2.216s3.051,1.558,3.036,2.927c0,0-2.755-2.579-3.21-2.443,0,0-.313,2.428.507,3.744a5.607,5.607,0,0,1-1.08-3.773,4.436,4.436,0,0,0-1.953,1.882s-.761-1.384,2.042-2.469c0,0,.357-1.882.684-2.1a14.433,14.433,0,0,0-4.328,1.918s.555-1.735,4.614-2.4l1.115-1.806s-4.071.92-5.364,1.85c0,0,.982-1.7,5.7-2.289l1.475-1.637a29.03,29.03,0,0,0-5.4,1.431s1.431-1.431,5.847-1.888l1.18-1.009s-2.623.478-3.354.661-.885.065-.885.065a11.621,11.621,0,0,1,4.72-1.156S676.085,103.414,675.913,103.29Z" transform="translate(-488.331 -89.146)" fill="#3e4f87" opacity="0.1"/>
      <path id="Path_5619" data-name="Path 5619" d="M892.732,805.409s9.883-10.382,1.13-15.557a2.446,2.446,0,0,0-2.788-.69s.552.5-.569,1.44a6.661,6.661,0,0,0-1.059,1.139,3.225,3.225,0,0,0-.625,1.959h0s-1.325,4.145,2.694,9.579c0,0,.351,1.809.661,2.012l.77-2.511a4.331,4.331,0,0,1-2.552-1.921s2.44,1.953,2.682,1.552c.05-.083.348-1.348.348-1.348s-3.245-.885-4.231-3.11c0,0,2.6,2.72,4.349,2.629l.336-1.938s-3.464-.752-4.694-3.245c0,0,2.812,2.75,4.741,2.832l.074-1.953s-3.366-.814-4.387-2.909c0,0,3.57,2.85,4.36,2.446a8.786,8.786,0,0,0-.3-2.266s-2.4-.631-2.879-1.9c0,0,2.587,1.652,2.812,1.4a10.122,10.122,0,0,0-1.64-3.322,7.337,7.337,0,0,1,2,3.2,4.033,4.033,0,0,0,.51-2.257s.956,1.08-.354,2.823a9.33,9.33,0,0,1,.333,2.121,8.837,8.837,0,0,0,1.935-2.918s.295,1.75-1.938,3.434l-.03,1.965a12.522,12.522,0,0,0,2.584-3.133s0,1.832-2.635,3.626l-.3,1.906a14.971,14.971,0,0,0,2.756-2.753s-.354,1.7-2.865,3.292l-.357,1.248s1.416-1.136,1.794-1.5.507-.3.507-.3a6.176,6.176,0,0,1-2.443,2.319A15.118,15.118,0,0,0,892.732,805.409Z" transform="translate(-647.233 -572.526)" fill="#3e4f87" opacity="0.1"/>
      <path id="Path_5620" data-name="Path 5620" d="M575.85,55.7s1.685,14.232,11.255,10.8a2.447,2.447,0,0,0,2.31-1.708s-.738.106-.743-1.357a6.607,6.607,0,0,0-.2-1.543,3.222,3.222,0,0,0-1.106-1.732h0s-2.349-3.664-9.107-4.024c0,0-1.617-.885-1.971-.773l1.443,2.192a4.32,4.32,0,0,1,3.107-.738s-3.062.631-2.906,1.074c.03.091.814,1.127.814,1.127s2.758-1.947,5.119-1.283c0,0-3.75.26-4.8,1.667l1.26,1.5s2.791-2.189,5.508-1.537c0,0-3.912.413-5.207,1.844l1.469,1.3s2.761-2.083,5.015-1.522c0,0-4.473.932-4.667,1.8a9.436,9.436,0,0,0,1.927,1.233s2.018-1.449,3.3-1.006c0,0-2.921.938-2.876,1.269a10.139,10.139,0,0,0,3.605.856,7.487,7.487,0,0,1-3.738-.5,4.046,4.046,0,0,0,1.413,1.835s-1.44.044-1.95-2.065a9.4,9.4,0,0,1-1.844-1.095,8.829,8.829,0,0,0,1.012,3.351s-1.528-.885-1.41-3.685L580.4,61.694a12.59,12.59,0,0,0,.758,3.992s-1.416-1.159-1.109-4.343l-1.266-1.454a14.99,14.99,0,0,0,.357,3.877s-1.083-1.357-.705-4.307l-.735-1.071s-.027,1.814,0,2.34-.1.575-.1.575a6.2,6.2,0,0,1-.23-3.372A15.061,15.061,0,0,0,575.85,55.7Z" transform="translate(-426.745 -55.347)" fill="#3e4f87" opacity="0.1"/>
      <path id="Path_5621" data-name="Path 5621" d="M783.832,733.6s-13.813-3.835-14.256,6.325a2.448,2.448,0,0,0,.705,2.785s.18-.72,1.537-.174a6.61,6.61,0,0,0,1.5.4,3.224,3.224,0,0,0,2.024-.372h0s4.278-.785,7.181-6.886c0,0,1.431-1.159,1.475-1.531l-2.576.5a4.331,4.331,0,0,1-.5,3.157s.59-3.074.109-3.1c-.1,0-1.354.328-1.354.328s.755,3.263-.752,5.2c0,0,1.18-3.57.274-5.074l-1.87.617s.968,3.41-.667,5.676c0,0,1.1-3.773.266-5.514l-1.753.853s.885,3.346-.493,5.222c0,0,.832-4.49.1-5a9.6,9.6,0,0,0-1.867,1.316s.59,2.416-.319,3.434c0,0,.236-3.059-.086-3.142a10.1,10.1,0,0,0-2.16,3.012,7.337,7.337,0,0,1,1.882-3.269,4.052,4.052,0,0,0-2.233.611s.5-1.348,2.655-1.015a9.246,9.246,0,0,1,1.714-1.292,8.77,8.77,0,0,0-3.487-.336s1.41-1.074,3.945.094l1.747-.885a12.58,12.58,0,0,0-3.98-.808s1.608-.885,4.425.617l1.823-.622a15.013,15.013,0,0,0-3.723-1.136s1.667-.487,4.254.979l1.269-.274s-1.67-.714-2.169-.885-.5-.295-.5-.295a6.2,6.2,0,0,1,3.2,1.062A15.271,15.271,0,0,0,783.832,733.6Z" transform="translate(-563.195 -533)" fill="#3e4f87" opacity="0.1"/>
    </g>
  </g>
</svg>
